<?xml version="1.0" standalone="no"?>
<!DOCTYPE svg PUBLIC "-//W3C//DTD SVG 1.1//EN" "http://www.w3.org/Graphics/SVG/1.1/DTD/svg11.dtd" >
<svg xmlns="http://www.w3.org/2000/svg">
<metadata>
Created by FontForge 20120731 at Fri May 12 14:12:50 2017
 By admin
</metadata>
<defs>
<font id="iconfont" horiz-adv-x="1024" >
  <font-face 
    font-family="iconfont"
    font-weight="500"
    font-stretch="normal"
    units-per-em="1024"
    panose-1="2 0 6 3 0 0 0 0 0 0"
    ascent="896"
    descent="-128"
    x-height="792"
    bbox="-0.541667 -128.286 1427 896.75"
    underline-thickness="0"
    underline-position="0"
    unicode-range="U+0078-E6C1"
  />
<missing-glyph 
 />
    <glyph glyph-name=".notdef" 
 />
    <glyph glyph-name=".notdef" 
 />
    <glyph glyph-name=".null" horiz-adv-x="0" 
 />
    <glyph glyph-name="nonmarkingreturn" horiz-adv-x="341" 
 />
    <glyph glyph-name="x" unicode="x" horiz-adv-x="1001" 
d="M281 543q-27 -1 -53 -1h-83q-18 0 -36.5 -6t-32.5 -18.5t-23 -32t-9 -45.5v-76h912v41q0 16 -0.5 30t-0.5 18q0 13 -5 29t-17 29.5t-31.5 22.5t-49.5 9h-133v-97h-438v97zM955 310v-52q0 -23 0.5 -52t0.5 -58t-10.5 -47.5t-26 -30t-33 -16t-31.5 -4.5q-14 -1 -29.5 -0.5
t-29.5 0.5h-32l-45 128h-439l-44 -128h-29h-34q-20 0 -45 1q-25 0 -41 9.5t-25.5 23t-13.5 29.5t-4 30v167h911zM163 247q-12 0 -21 -8.5t-9 -21.5t9 -21.5t21 -8.5q13 0 22 8.5t9 21.5t-9 21.5t-22 8.5zM316 123q-8 -26 -14 -48q-5 -19 -10.5 -37t-7.5 -25t-3 -15t1 -14.5
t9.5 -10.5t21.5 -4h37h67h81h80h64h36q23 0 34 12t2 38q-5 13 -9.5 30.5t-9.5 34.5q-5 19 -11 39h-368zM336 498v228q0 11 2.5 23t10 21.5t20.5 15.5t34 6h188q31 0 51.5 -14.5t20.5 -52.5v-227h-327z" />
    <glyph glyph-name="xsdbangzhu" unicode="&#xe602;" 
d="M645 221q-21 0 -29 18q-5 12 0 23.5t16 16.5q37 16 73 51.5t61 80.5q34 62 34 156q0 98 -83.5 171.5t-195 73.5t-195.5 -73t-84 -170q0 -92 28 -148q23 -49 61 -85.5t74 -53.5q11 -5 15.5 -17t-1.5 -23.5t-18 -15.5t-24 1q-50 24 -94 69t-70 98q-33 70 -33 175
q0 80 47 150.5t126 112t168 41.5t168 -42t126.5 -113t47.5 -151q0 -109 -43 -185q-29 -54 -73 -96.5t-90 -62.5q-6 -2 -12 -2v0zM395 -15q-13 0 -22 9t-9 22v239q0 12 9 21t22 9t22 -9t9 -21v-239q0 -13 -9 -22t-22 -9v0zM645 -18q-13 0 -22 9t-9 21v239q0 13 9 22t22 9
t22 -9t9 -22v-239q0 -12 -9 -21t-22 -9v0zM520 -122q-65 0 -110.5 42t-45.5 102q0 13 9 22t22 9t22 -9t9 -22q0 -34 27.5 -58.5t66 -24.5t66 24.5t27.5 58.5q0 13 9 22t22 9t22.5 -9t9.5 -22q-1 -60 -46.5 -102t-109.5 -42v0zM627 14h-224q-13 0 -22 9t-9 21.5t9 21.5t22 9
h224q13 0 22 -9t9 -21.5t-9 -21.5t-22 -9v0zM645 135h-250q-13 0 -22 9t-9 22t9 22t22 9h250q12 0 21.5 -9t9.5 -22t-9.5 -22t-21.5 -9v0zM523 441l-16 3l17 60l-9 -30l-13 27q-10 -6 -12 -15q4 25 19 35q12 8 29 7q32 1 54.5 21.5t22.5 49.5q0 30 -23 51t-56 21
q-32 0 -55 -22t-23 -53h-63q0 56 42 96.5t99 40.5q59 0 100 -39.5t41 -94.5q0 -51 -37 -89t-91 -43q-4 -12 -14 -19l-12 -7v0zM490 501h62v-108h-62v108v0zM489 323q0 -13 9.5 -22t23 -9t22.5 9t9 22q0 19 -16 28t-32 0t-16 -28v0z" />
    <glyph glyph-name="xsdquanxian" unicode="&#xe605;" 
d="M654 315q-4 6 -5 24t0 24l7 17q8 9 17 23t16 28.5t13 27.5t9 21l4 8q16 20 22 39t4 32t-6 23t-9 15l-5 4q2 10 3.5 55.5t-0.5 62.5q0 1 -1.5 8.5t-2 11t-2.5 12t-4.5 15t-6.5 16t-9 17.5t-12 18.5t-16 20.5q-21 25 -54 39.5t-56 16.5l-23 2h-36h-36q-3 0 -9 -0.5
t-23.5 -4t-33.5 -9t-35 -17t-32 -27.5q-8 -10 -15.5 -20.5t-12 -18.5t-9 -17.5t-6.5 -16t-4.5 -15t-3 -12t-1.5 -11t-1 -8.5q-3 -17 -1.5 -63t3.5 -55q-2 -1 -5 -4.5t-8.5 -14.5t-6.5 -23.5t5 -31.5t22 -39q31 -77 58 -108q7 -12 8 -17q0 -6 -1 -24t-4 -24q-33 -57 -74 -61
q-22 -2 -42.5 -0.5t-42.5 -0.5t-34 -12q-21 -15 -47 -38t-58 -62t-40 -70q-36 -141 45 -163h527v54h-82q-53 -1 -221.5 0.5t-187.5 5.5q-21 6 -21 27.5t8 52.5q5 28 43 69.5t66 59.5q11 6 20.5 9t18.5 4t30.5 3t44.5 5q27 4 48.5 17t35 31.5t20.5 32t11 26.5q6 19 4 53.5
t-7 39.5t-20.5 31t-17.5 33l-16 38q-20 24 -24.5 43.5t-1 27t8.5 9.5q5 4 4 55q-1 5 -1.5 17.5t0 19.5t1 19.5t2.5 28t5 34.5q4 20 17.5 35.5t31 24t34 14.5t27.5 8l11 2h52q4 0 11.5 -1.5t27 -8t35 -15t30 -24t17.5 -35.5q4 -19 6 -34.5t2.5 -28t0.5 -19.5t-0.5 -19.5
t-0.5 -17.5q-1 -51 4 -55q4 -2 7.5 -9.5t-0.5 -27t-24 -43.5q-13 -30 -16 -38q-3 -7 -18.5 -33t-19.5 -31q-6 -5 -8 -39.5t4 -53.5q13 -38 38 -66l41 60q-6 8 -10 16v0zM683 190h49q0 38 28.5 64.5t69 26.5t69 -26.5t28.5 -64.5h48q0 57 -42.5 97t-103 40t-103.5 -40
t-43 -97v0zM992 160h-325q-13 0 -22.5 -9t-9.5 -21v-228q0 -12 9.5 -21t22.5 -9h325q13 0 22.5 9t9.5 21v228q0 12 -9.5 21t-22.5 9v0zM854 0v-44q0 -9 -7.5 -16t-17.5 -7t-17 7t-7 16v44q-24 13 -24 39q0 19 14 32t34 13v0q21 0 35 -13t14 -32q0 -26 -24 -39v0z" />
    <glyph glyph-name="xsdtianjiazhangdan" unicode="&#xe60a;" 
d="M274 637h234q15 0 26 11t11 26.5t-11 26.5t-26 11h-234q-15 0 -26 -11t-11 -26.5t11 -26.5t26 -11v0zM274 228h340q17 0 29.5 12.5t12.5 30.5t-12.5 30.5t-29.5 12.5h-340q-17 0 -29.5 -12.5t-12.5 -30.5t12.5 -30.5t29.5 -12.5v0zM274 432h340q17 0 29.5 12.5t12.5 30
t-12.5 30t-29.5 12.5h-340q-17 0 -29.5 -12.5t-12.5 -30t12.5 -30t29.5 -12.5v0zM802 89v747q0 25 -17.5 42.5t-41.5 17.5h-599q-24 0 -41.5 -17.5t-17.5 -42.5v-747q0 -25 17.5 -42.5t41.5 -17.5h599q24 0 41.5 17.5t17.5 42.5v0zM728 821v-717h-569v717h569v0zM937 684
q-11 11 -26.5 11t-26.5 -11t-11 -27v-674q0 -5 -3.5 -9t-9.5 -4h-499q-15 0 -26 -11t-11 -26.5t11 -26t26 -10.5h499q36 0 61.5 25.5t25.5 61.5v674q0 16 -10 27v0z" />
    <glyph glyph-name="xsdxiebeiwang" unicode="&#xe60d;" 
d="M281 314h442q5 0 8.5 -3.5t3.5 -7.5v-47q0 -5 -3.5 -8.5t-8.5 -3.5h-442q-5 0 -8.5 3.5t-3.5 8.5v47q0 4 3.5 7.5t8.5 3.5v0zM281 151h442q5 0 8.5 -3.5t3.5 -7.5v-47q0 -5 -3.5 -8.5t-8.5 -3.5h-442q-5 0 -8.5 3.5t-3.5 8.5v47q0 4 3.5 7.5t8.5 3.5v0zM874 58v-51.5
v-41.5h-40h-53h-558h-93v93v652v93h93h465l70 93h-628q-39 0 -66 -27.5t-27 -65.5v-838q0 -38 27 -65.5t66 -27.5h744q39 0 66 27.5t27 65.5v675l-93 -70v-512v0zM836 852q17 22 22 27q19 21 51 10q11 -4 24.5 -15.5t21.5 -24.5q15 -27 0 -47l-21 -28l-98 78v0zM805 812
q-170 -226 -182 -243q-9 -12 -13 -26q-3 -10 -8.5 -43.5t-6 -46t4.5 -17t17 -1.5t42.5 17.5t43.5 23.5q12 8 21 20l180 239l-99 77v0z" />
    <glyph glyph-name="xsdtianjia" unicode="&#xe60f;" 
d="M512 -128q-139 0 -257 68.5t-186.5 186.5t-68.5 257t68.5 257t186.5 186.5t257 68.5t257 -68.5t186.5 -186.5t68.5 -257t-68.5 -257t-186.5 -186.5t-257 -68.5v0zM509 801q-113 0 -207 -56t-147.5 -151.5t-53.5 -209t54 -207.5t147.5 -148t206.5 -54t209 54t151.5 148.5
t55.5 207.5t-55.5 208.5t-151.5 151.5t-209 56v0zM717 333h-153v-153q0 -22 -15 -36.5t-37 -14.5v0q-21 0 -36 14.5t-15 36.5v153h-153q-22 0 -37 15t-15 36v1q0 21 15 36t37 15h153v153q0 22 15 37t36 15v0q22 0 37 -15t15 -37v-153h153q21 0 36 -15t15 -36v-1
q0 -21 -15 -36t-36 -15v0z" />
    <glyph glyph-name="xsddiwei" unicode="&#xe612;" 
d="M512 895q-99 0 -183.5 -49t-133.5 -133.5t-49 -183.5q0 -64 20.5 -134.5t52.5 -132.5t71 -121.5t78 -106.5t71.5 -83t52.5 -56l20 -19q8 7 21 20t51 54.5t72.5 84t76.5 105.5t72.5 123t51.5 131t21 135q0 99 -49 183.5t-133.5 133.5t-183.5 49v0v0zM512 320
q-87 0 -148 61t-61 148t61 148t148 61t148 -61t61 -148t-61 -148t-148 -61v0v0z" />
    <glyph glyph-name="xsdjiantou2" unicode="&#xe613;" 
d="M782 326q-295 -285 -450 -435q-18 -17 -39.5 -19t-37.5 10t-27 29t-8.5 38.5t20.5 38.5q44 43 184.5 178.5t216.5 209.5q-45 44 -185.5 184t-217.5 217q-17 17 -19.5 39t8 39t27 28.5t38 9.5t38.5 -19q147 -146 452 -450q19 -19 19.5 -49t-19.5 -49v0z" />
    <glyph glyph-name="xsdjiantou3" unicode="&#xe614;" 
d="M242 442q295 285 450 435q18 17 39.5 19t37.5 -10t27 -29t8.5 -38.5t-20.5 -38.5q-44 -43 -184.5 -178.5t-216.5 -209.5q45 -44 185.5 -184t217.5 -217q17 -17 19.5 -39t-8 -39t-27 -28.5t-38 -9.5t-38.5 19q-147 146 -452 450q-19 19 -19.5 49t19.5 49v0z" />
    <glyph glyph-name="xsdsousuo" unicode="&#xe618;" 
d="M1015 -42l-292 294q59 78 75.5 173t-12.5 188t-99 164q-77 76 -180 103.5t-206 0t-180 -104t-104.5 -179.5t0 -206.5t104.5 -179.5q70 -71 163 -100t188 -12.5t173 75.5l292 -294q7 -7 17 -7t18 7l43 44q7 7 7 17t-7 17v0zM195 283q-86 86 -86 207.5t86 207.5t207.5 86
t208 -86t86.5 -207.5t-86.5 -207.5t-208 -86t-207.5 86v0z" />
    <glyph glyph-name="xsdtixing" unicode="&#xe61b;" 
d="M975 55q-4 22 -24.5 40.5t-43 29.5t-41.5 25t-19 29q-1 20 1.5 89.5t5.5 131.5t3 59q2 67 -18 123t-57 95.5t-80.5 67t-95.5 45.5q1 1 0 3v1v1q0 39 -27.5 67t-66.5 28t-66.5 -28t-27.5 -67v-1v-1q-1 -2 0 -3q-52 -18 -95.5 -45.5t-80.5 -67t-57 -96t-18 -122.5
q2 -26 4 -66.5t4.5 -117t1.5 -96.5q0 -15 -19 -29.5t-41.5 -25t-43 -29t-24.5 -40.5q-4 -19 12.5 -35t38.5 -16h297q-1 -9 -1 -16q0 -48 34 -82t82 -34t82 34t34 82q0 7 -1 16h297q22 0 38.5 16t12.5 35v0z" />
    <glyph glyph-name="xsdzuwu" unicode="&#xe61e;" 
d="M243 386h459q11 0 18.5 7.5t7.5 18t-7.5 18t-18.5 7.5h-459q-11 0 -18.5 -7.5t-7.5 -18t7.5 -18t18.5 -7.5v0zM740 320q-93 0 -158.5 -65.5t-65.5 -158.5t65.5 -158.5t158 -65.5t158.5 65.5t66 158.5t-66 158.5t-158 65.5v0zM896 68h-156q-12 0 -20.5 8t-8.5 20v151
q0 12 8.5 20t20 8t20 -8t8.5 -20v-122h128q12 0 20.5 -8.5t8.5 -20.5t-8.5 -20t-20.5 -8v0zM466 318h-223q-11 0 -18.5 -7.5t-7.5 -18t7.5 -18t18.5 -7.5h223q10 0 18 7.5t8 18t-8 18t-18 7.5v0zM243 503h344q10 0 17.5 7.5t7.5 18t-7.5 18t-17.5 7.5h-344q-11 0 -18.5 -7.5
t-7.5 -18t7.5 -18t18.5 -7.5v0zM243 635h204q10 0 17.5 7.5t7.5 18t-7.5 18.5t-17.5 8h-204q-11 0 -18.5 -8t-7.5 -18.5t7.5 -18t18.5 -7.5v0zM933 406v376q0 44 -31.5 75t-75.5 31h-98h-41h-555q-44 0 -75.5 -31t-31.5 -75v-770q0 -45 31.5 -76t75.5 -31h299v0
q18 0 30.5 12.5t12.5 30t-12.5 30t-30.5 12.5h-0.5h-0.5h-298q-9 0 -15 6t-6 15v771q0 8 6 14.5t15 6.5h555h41h98q8 0 14.5 -6.5t6.5 -14.5l1 -380v0q0 -17 12.5 -29.5t30 -12.5t30 12.5t12.5 30.5v3v0z" />
    <glyph glyph-name="xsdjinggao" unicode="&#xe620;" horiz-adv-x="1118" 
d="M1088 79l-460 788q-29 29 -69.5 29t-69.5 -29l-460 -788q-29 -29 -29 -69.5t29 -69.5h1059q29 29 29 69.5t-29 69.5v0zM516 584q0 23 16 39t39 16t39 -16t16 -39v-257q0 -23 -16 -39t-39 -16t-39 16t-16 39v257v0zM572 88q-23 0 -39.5 16t-16.5 39t16.5 39t39 16t39 -16
t16.5 -39t-16.5 -39t-38.5 -16v0z" />
    <glyph glyph-name="xsddaochu" unicode="&#xe62d;" 
d="M140 756h372v73h-446v-73v0v-809v-74h74h372v74h-372v809zM963 410v0l-178 164l-59 -55l142 -131h-514v-73h506l-134 -125l59 -54l237 219z" />
    <glyph glyph-name="xsdpaixu" unicode="&#xe62f;" 
d="M193 532h630l-315 354l-315 -354v0zM823 295h-630l315 -354l315 354v0z" />
    <glyph glyph-name="xsdguanbi" unicode="&#xe633;" 
d="M636 384l371 -371q17 -17 17 -41.5t-17 -41.5l-41 -41q-17 -17 -41.5 -17t-41.5 17l-371 371l-371 -371q-17 -17 -41.5 -17t-41.5 17l-41 41q-17 17 -17 41.5t17 41.5l371 371l-371 371q-17 17 -17 41.5t17 41.5l41 41q17 17 41.5 17t41.5 -17l371 -371l371 371
q17 17 41.5 17t41.5 -17l41 -41q17 -17 17 -41.5t-17 -41.5l-371 -371v0z" />
    <glyph glyph-name="xsdliushui" unicode="&#xe634;" 
d="M963 180h-48q-8 0 -8 8v8v0q-3 87 -65.5 147t-149.5 60q-89 0 -152 -63t-63 -152t63 -152t152 -63q76 0 135 49l-95 93l191 2v-192l-51 51q-78 -66 -180 -66q-115 0 -197 81.5t-82 197t82 197t197 81.5q110 0 190 -75t88 -184q1 -2 1 -4v-16q0 -8 -8 -8v0v0zM557 579v47
h159v-47h-159v0zM174 196h192v-48h-192v48v0zM477 483v-48h-127v-143h-48v143h-128v48h128v96h-128v47h60l-60 60l36 36l96 -96h40l95 96l36 -36l-60 -60h60v-47h-127v-96h127v0zM812 770q0 13 -9.5 22.5t-22.5 9.5h-669q-13 0 -22.5 -9.5t-9.5 -22.5v-733q0 -13 9.5 -22.5
t22.5 -9.5h311q23 -35 57 -64h-392q-30 0 -51 21t-21 51v781q0 29 21 50t51 21h717q29 0 50 -21t21 -50v-335q-29 19 -63 33v278v0v0zM664 190v16v98h48v-98h96v-48h-144v32v0zM712 174v-16v-98h-48v98h-95v48h143v-32v0z" />
    <glyph glyph-name="xsdshanchu" unicode="&#xe636;" 
d="M924 694h-824q-11 0 -19 8.5t-8 20t8 19.5t19 8h824q11 0 19 -8t8 -19.5t-8 -20t-19 -8.5v0v0zM658 806h-292q-11 0 -19 8.5t-8 20t8 20t19 8.5h292q11 0 19 -8.5t8 -20t-8 -20t-19 -8.5v0v0zM392 78v476q0 12 8 20t19 8t19 -8t8 -20v-476q0 -12 -8 -20t-19 -8t-19 8
t-8 20v0v0zM578 78v476q0 12 8 20t19 8t19 -8t8 -20v-476q0 -12 -8 -20t-19 -8t-19 8t-8 20v0v0zM206 610q11 0 19 -8t8 -20v-33v-107v-448q0 -23 15.5 -39.5t37.5 -16.5h452q22 0 37.5 16.5t15.5 39.5v448v107v33q0 12 8 20t19 8t18.5 -8t7.5 -20v-112v-28v-476
q0 -35 -23 -59.5t-56 -24.5h-506q-33 0 -56 24.5t-23 59.5v425v51v28v112q0 12 7.5 20t18.5 8v0v0z" />
    <glyph glyph-name="xsddianhua" unicode="&#xe637;" 
d="M1017 107l-4 6l-11 14q-12 15 -45 43q-46 40 -85 67l-52 34l-23 12q-17 9 -38 2q-17 -6 -25 -21l-17 -25q-4 -8 -9 -17q-4 -7 -13.5 -27t-16.5 -32q-8 -16 -22.5 -27.5t-34 -15t-39.5 8.5q-110 65 -184 139q-108 108 -145 194q-9 15 -2 42t29 38q14 8 37 17.5t33 16.5
q8 5 16.5 9.5t19.5 12.5q1 0 5 3.5t4 4.5q2 1 3 3q21 20 10 48l-3 9q-15 37 -39 78q-18 33 -44 70q-17 23 -35 40.5t-28 22.5l-9 6l-14 7q-26 11 -54 -1q-17 -7 -33.5 -17.5t-23.5 -16.5l-28 -24q-48 -41 -75 -92.5t-21 -97.5q11 -81 95 -224t196 -254.5t256 -195t225 -93.5
q47 -7 91 15t91 67q41 40 60 81q7 16 8.5 34t-6.5 36v0z" />
    <glyph glyph-name="xsdrenwu" unicode="&#xe638;" horiz-adv-x="1025" 
d="M1022 41q-6 18 -20.5 32t-27.5 20t-37.5 15.5t-35.5 14.5q-16 7 -73 33.5t-87 39.5q-28 9 -44 13q-15 12 -44 78q-13 2 -28 5q1 18 13 34.5t15 25.5t4 35t7 38q4 7 16 14t16 12q10 15 15 45q9 56 -3 84q-2 5 -5.5 11t-5 10.5t-1.5 12.5q-2 12 2 57.5t4 46.5q0 28 -1 39
t-8 40q-11 34 -27 45l-33 6l-20 20q-29 19 -60 25.5t-63 0t-49.5 -12.5t-43.5 -17q-55 -20 -78.5 -80t-2.5 -168q3 -15 -4.5 -31t-7.5 -21q0 -1 1.5 -21.5t3 -31t4.5 -27.5t8.5 -28t13.5 -16q1 -1 6.5 -2.5t10 -2.5l4.5 -1q6 -65 8 -90q3 -8 14.5 -21.5t13.5 -29.5l-21 -6
q-29 -66 -44 -78q-6 -1 -44 -13q-29 -13 -86.5 -39.5t-73.5 -33.5q-10 -5 -35 -14.5t-37.5 -15.5t-27 -20t-20.5 -32q0 -12 -1.5 -77t-1.5 -92h450l33 243l-28 63l64 32l53 -32l-30 -64l52 -242h430q0 27 -1 92t-1 77v0z" />
    <glyph glyph-name="xsdtianjiayuangong" unicode="&#xe639;" horiz-adv-x="1229" 
d="M149 101q-36 19 -36 47v25q0 33 59.5 75t148.5 74q28 11 39 37t-2 68l-5 8q-37 38 -60 93t-23 109q0 63 28.5 105.5t78.5 57.5q9 3 13.5 11.5t1.5 17.5t-11.5 13.5t-17.5 1.5q-65 -20 -102 -74.5t-37 -132.5q0 -61 24.5 -123t66.5 -107q11 -33 -10 -41
q-107 -39 -172.5 -90t-65.5 -103v-25q0 -55 60 -88q8 -5 17 -2t14 11.5t2 17.5t-11 14v0zM649 -19q-165 0 -257.5 25.5t-92.5 73.5v28q0 37 65.5 84t164.5 83q30 11 41.5 39t-2.5 72l-5 8q-41 42 -66 103t-25 121q0 88 48.5 139t127.5 51t128 -51t49 -139q0 -59 -25 -120
t-66 -103l-5 -9q-13 -48 -3.5 -75.5t36.5 -36.5q43 -14 82 -32l19 43q-41 19 -86 34q-18 5 -5 48q46 50 73 117t27 134q0 107 -62.5 171.5t-161 64.5t-161 -64.5t-62.5 -171.5q0 -67 27.5 -135t73.5 -116q13 -39 -13 -49q-117 -42 -188.5 -97.5t-71.5 -112.5v-28
q0 -77 101 -111.5t295 -34.5q69 0 125 5l-3 46q-55 -4 -122 -4v0zM994 122v178h-54v-178h-178v-54h178v-168h54v168h168v54h-168z" />
    <glyph glyph-name="xsdtianjiafujian" unicode="&#xe63b;" 
d="M974 761l-85 85q-49 49 -119.5 50t-117.5 -47l-23 -22l-70 -70q-9 -10 -9 -23.5t9.5 -23t23 -9.5t23.5 10l70 69l22 23q28 28 71.5 27t72.5 -30l86 -86q29 -29 30 -72t-27 -71l-209 -210l-82 -81q-30 -30 -78.5 -32t-75.5 25l-39 39q-1 1 -2 2.5l-1 1.5h-1l-23 23
q-10 9 -23.5 9t-23 -9.5t-9.5 -23t10 -23.5l27 -27l39 -39l3 -3q1 -1 7 -4q45 -38 110.5 -36.5t114.5 41.5l1 -1q1 1 3 3.5t3 3.5q1 0 2.5 1.5l1.5 1.5l291 291q48 48 47 118t-50 119v0zM420 60l-70 -70l-23 -23q-29 -29 -69.5 -29t-69.5 29l-93 93q-29 29 -29 70t29 69
l302 302q29 29 69.5 29t69.5 -29l47 -46l23 -23q10 -10 23.5 -10t23 9.5t9.5 23.5t-10 23l-23 23l-46 47q-48 48 -116.5 48t-116.5 -48l-302 -302q-48 -48 -48 -116t48 -116l93 -93q48 -48 116.5 -48t116.5 48l23 23l70 70q9 9 9 22.5t-9.5 23.5t-23 10t-23.5 -10v0z" />
    <glyph glyph-name="xsdxiajiantou" unicode="&#xe63c;" 
d="M516 160q-13 0 -23 9l-384 384q-9 9 -9 22.5t9.5 23t22.5 9.5t22 -10l384 -384q10 -9 10 -22t-9.5 -22.5t-22.5 -9.5zM516 160q-13 0 -23 9q-9 9 -9 22.5t9 22.5l384 384q10 10 23 10t22.5 -9.5t9.5 -22.5t-10 -23l-384 -384q-9 -9 -22 -9z" />
    <glyph glyph-name="xsdcaidan" unicode="&#xe63d;" 
d="M1 384.5q0 42.5 30 72t72.5 29.5t72 -29.5t29.5 -72t-29.5 -72.5t-72 -30t-72.5 30t-30 72.5zM410 384.5q0 42.5 30 72t72 29.5t72 -29.5t30 -72t-30 -72.5t-72 -30t-72 30t-30 72.5zM819 384.5q0 42.5 29.5 72t72 29.5t72.5 -29.5t30 -72t-30 -72.5t-72.5 -30t-72 30
t-29.5 72.5z" />
    <glyph glyph-name="xsdrili" unicode="&#xe63e;" 
d="M856 -66h-683q-26 0 -44.5 18.5t-18.5 43.5v684q0 26 18.5 44t44.5 18h62v-31q0 -38 27 -65.5t66 -27.5t66 27.5t27 65.5v31h187v-31q0 -38 27 -65.5t66 -27.5t66 27.5t27 65.5v31h62q26 0 44 -18t18 -44v-684q0 -25 -18 -43.5t-44 -18.5zM856 525h-683v-529h683v529z
M328 369h-93v94h93v-94zM328 214h-93v93h93v-93zM328 59h-93v93h93v-93zM483 369h-93v94h93v-94zM483 214h-93v93h93v-93zM483 59h-93v93h93v-93zM639 369h-93v94h93v-94zM639 214h-93v93h93v-93zM639 59h-93v93h93v-93zM794 369h-93v94h93v-94zM794 214h-93v93h93v-93z
M794 59h-93v93h93v-93zM700 649q-25 0 -43 18t-18 43v64q0 26 18 44t43 18t43 -18t18 -44v-64q0 -25 -18 -43t-43 -18zM327 649q-25 0 -43 18t-18 43v64q0 26 18 44t43 18t43 -18t18 -44v-64q0 -25 -18 -43t-43 -18z" />
    <glyph glyph-name="xsdxiangji" unicode="&#xe63f;" 
d="M881 -3h-39v0h-660v0h-39q-32 0 -54.5 22.5t-22.5 54.5v523q0 32 22.5 54.5t54.5 22.5h39v0v0h126l49 78q0 7 14.5 13t24.5 6h232q10 0 24.5 -6t14.5 -13l49 -78h126h39q32 0 54.5 -22.5t22.5 -54.5v-523q0 -32 -22.5 -54.5t-54.5 -22.5zM512 597q-104 0 -178 -74
t-74 -178t74 -177.5t178 -73.5t178 73.5t74 177.5v0q0 105 -74 178.5t-178 73.5zM512 171q-72 0 -123.5 51t-51.5 123t51.5 123t123.5 51t123.5 -51t51.5 -123t-51.5 -123t-123.5 -51z" />
    <glyph glyph-name="xsdfukuanren" unicode="&#xe640;" 
d="M512.5 832q-91.5 0 -174.5 -35.5t-143 -95.5t-95.5 -143t-35.5 -174.5t35.5 -174.5t95.5 -143t143 -95.5t174.5 -35.5t174.5 35.5t143 95.5t95.5 143t35.5 174.5t-35.5 174.5t-95.5 143t-143 95.5t-174.5 35.5zM704 424v-64h-128v-64h128v-64h-128v-104h-128v104h-128v64
h128v64h-128v64h117l-117 117l59 58l133 -133l134 133l58 -58l-117 -117h117z" />
    <glyph glyph-name="sxddistribution" unicode="&#xe64c;" 
d="M793 798q53 0 90.5 -37.5t37.5 -90t-37.5 -89.5t-90.5 -37t-90 38l-31 -32q54 -55 54 -132q0 -75 -50 -129l52 -48q39 33 90 33q58 0 99.5 -41.5t41.5 -100t-41.5 -100t-100 -41.5t-100 41.5t-41.5 99.5q0 52 34 92l-53 48q-51 -42 -118 -42q-74 0 -129 51l-26 -27
q30 -44 30 -98q0 -72 -51 -123.5t-123.5 -51.5t-124 51.5t-51.5 123.5t51.5 123.5t123.5 51.5q78 0 130 -57l24 25q-42 52 -42 119q0 58 33 106l-58 52q-30 -30 -73.5 -30t-74 30.5t-30.5 73.5t30.5 73.5t74 30.5t74 -30.5t30.5 -73.5q0 -29 -15 -54l57 -53q56 63 140 63
q64 0 114 -39l34 34q-21 32 -21 70q0 52 37.5 89.5t89.5 37.5v0zM444 318h195q5 26 0 41q-3 10 -25 37t-28 28q-4 2 -31 1q15 7 25.5 24t10.5 36q0 22 -15 37.5t-36 15.5t-36 -15.5t-15 -37.5q0 -19 10.5 -36.5t26.5 -23.5l-30 -1q-5 -4 -13.5 -10.5t-23 -25t-15.5 -33
t-1 -24t1 -11.5v-2z" />
    <glyph glyph-name="sxdloading" unicode="&#xe64d;" 
d="M1006 368q-2 102 -43 194q-40 91 -112 161q-72 69 -164 105t-191 34q-98 -2 -187 -41t-156 -109t-102 -159t-33 -185q2 -95 40 -181t106 -151q67 -65 154 -98q86 -34 178 -32t175 39t146 102q62 65 95 149q19 50 26 103h4q26 0 45 19t19 45v5v0zM905 199
q-36 -80 -99.5 -140.5t-143.5 -91.5t-166 -29t-163 36.5t-135 95.5t-88 138t-28 160t35 157t92 130t133 85q74 28 154 26q79 -2 151 -33q71 -32 125 -89q53 -56 81 -128q27 -71 25 -148h1q-1 -2 -1 -5q0 -24 16.5 -42.5t40.5 -20.5q-9 -53 -30 -101v0v0z" />
    <glyph glyph-name="xsdaddemployees" unicode="&#xe64e;" 
d="M763 -42q-43 0 -81.5 16.5t-67 45t-45 67t-16.5 81.5t16.5 81.5t45 66.5t67 44.5t81.5 16.5t81.5 -16.5t66.5 -44.5t44.5 -66.5t16.5 -81.5t-16.5 -81.5t-44.5 -67t-66.5 -45t-81.5 -16.5zM866 202h-75v70q0 15 -9.5 25t-24 10t-22.5 -10t-8 -25v-70h-67q-14 0 -24 -10.5
t-10 -24.5t10 -21.5t24 -7.5h67v-72q0 -15 8 -25t22.5 -10t24 10t9.5 25v72h75v-2q15 0 25 8.5t10 22.5t-10 24.5t-25 10.5zM613 457q-4 -17 -8 -30q-4 -11 -10 -23t-13 -18q-10 -7 -13.5 -15.5t-6 -17t-5.5 -17.5t-10 -19q-24 -30 -35.5 -59t-16.5 -55.5t-2.5 -52.5
t8.5 -51q4 -18 12 -38t24 -41t40.5 -41t61.5 -38q-25 -6 -57 -10q-28 -3 -68.5 -5.5t-92.5 -2.5q-27 0 -62 2t-72.5 5t-74 7.5t-66.5 9t-51 9.5t-26 9q-10 8 -15 45.5t3 98.5q5 33 27 51t52 28.5t62 19t57 23.5q19 13 29.5 23.5t14.5 22t4 23.5t-1 27q-2 21 -15 33.5
t-27 24.5q-8 6 -14 18.5t-10 23.5q-6 13 -9 30q-7 2 -13 6q-5 4 -11 12t-12 25q-5 15 -3.5 28.5t6.5 22.5q4 11 11 19q0 35 4 70q4 30 12.5 63.5t28.5 60.5q18 26 39 42t43.5 25.5t45 13t43.5 3.5q26 0 51 -6t46 -16.5t37 -23t27 -26.5q23 -30 34 -65.5t16 -67.5
q5 -37 4 -74q6 -5 10 -12q4 -6 6 -16.5t0 -25.5q-2 -19 -8 -30.5t-13 -17.5q-8 -7 -18 -10z" />
    <glyph glyph-name="xsdaddcompany" unicode="&#xe64f;" 
d="M939 224l-111 137l38 34l111 -137zM559 40l-37 -63l74 17l287 258l41 -51l-310 -270l-164 -12l53 149l304 278l39 -48l-287 -258v0zM106 111q-25 0 -43 18.5t-18 43.5v314q0 14 5 18.5t19 4.5h112q12 0 16.5 -3.5t4.5 -17.5v-2q0 -13 8.5 -22.5t21.5 -9.5h24q13 0 22 9.5
t9 22.5v4q0 12 4.5 15.5t17.5 3.5h211q10 0 13.5 -3.5t3.5 -13.5v-6q0 -13 9 -22.5t22 -9.5h23q13 0 22 9.5t9 22.5v7q0 10 4 13t17 3h117q19 0 19 -18v-133l-266 -248h-407v0zM602 551v-38q0 -12 -6.5 -21t-16 -9t-16 9t-6.5 21v38q0 13 6.5 22t16 9t16 -9t6.5 -22v0z
M267 551v-38q0 -12 -6.5 -21t-16 -9t-16 9t-6.5 21v38q0 13 6.5 22t16 9t16 -9t6.5 -22v0zM759 557h-117q-12 0 -16 3.5t-4 14.5v6q0 13 -9 22t-22 9h-23q-13 0 -22 -9t-9 -22v-7q0 -11 -2.5 -14t-14.5 -3h-212q-13 0 -17 3.5t-4 15.5v5q0 13 -9 22t-22 9h-24
q-13 0 -21.5 -9t-8.5 -22v-4q0 -13 -4.5 -16.5t-17.5 -3.5h-111q-14 0 -19 4.5t-5 18.5v33q0 25 18 43.5t43 18.5h74q24 78 88 127t144.5 49t145 -49t87.5 -127h73q25 0 43 -18.5t18 -43.5v-35q0 -12 -4 -16.5t-16 -4.5v0zM413 784q-54 0 -98 -30t-66 -79h327q-22 49 -66 79
t-97 30v0zM413 784z" />
    <glyph glyph-name="xsdcheat" unicode="&#xe650;" 
d="M990 578l-344 -344l-250 -94l94 250l344 346q12 14 28 20t34 6q16 0 33 -6t29 -20l32 -32q12 -12 19 -29t7 -33q0 -18 -7 -34t-19 -30v0v0zM472 216l150 56l10 8l-94 96l-10 -10zM568 406l94 -94l234 236l-94 94zM958 674l-30 32q-8 6 -16 9t-16 3t-16 -3t-16 -9l-30 -32
l92 -94l32 32q6 6 10 14t4 16q0 10 -4 18t-10 14v0v0zM154 116v46h218l-18 -46h-200zM404 250h-250v44h268zM154 562h222v-44h-222v44zM376 384h-222v44h222v-44zM640 162v-46h-214l118 46h96zM530 814v-162q0 -10 3 -18t9 -14t14 -10t18 -4h68l-44 -44h-24q-18 0 -34 7
t-28 19t-19 28t-7 36v200h-398q-8 0 -16 -4t-14 -10t-10 -14t-4 -18v-844q0 -10 4 -18t10 -14t14 -10t16 -4h618q10 0 18 4t14 10t9 14t3 18v312l44 46v-358q0 -20 -7 -36t-19 -28t-28 -19t-34 -7h-618q-18 0 -34 7t-28 19t-19 28t-7 36v844q0 20 7 36t19 28t28 19t34 7h428
l198 -216l-30 -32z" />
    <glyph glyph-name="xsdcomplete" unicode="&#xe651;" 
d="M516.5 711q-92.5 0 -158.5 -66t-66 -158.5t66 -158.5t158.5 -66t158.5 66t66 158.5t-66 158.5t-158.5 66zM516.5 315q-70.5 0 -121 50.5t-50.5 121t50.5 121t121 50.5t121 -50.5t50.5 -121t-50.5 -121t-121 -50.5zM1006 109l-132 198q0 1 -2 3q41 84 41 177
q0 107 -53 198t-144 144.5t-198.5 53.5t-198.5 -53.5t-144.5 -144.5t-53.5 -198q0 -92 42 -177l-3 -3l-132 -198q-9 -14 -3 -31q7 -16 24 -20l152 -30l92 -122q9 -13 26 -13h3q18 2 26 18l94 186q38 -7 75 -7t76 7l93 -186q9 -17 27 -18h3q16 0 26 13l92 122l152 30
q18 4 24 20q6 17 -4 31zM313 -12l-67 90q-7 10 -20 12l-116 23l90 136q70 -92 177 -133l-64 -128v0zM516.5 157q-89.5 0 -165.5 44t-120 120t-44 165.5t44 165.5t120 120.5t165.5 44.5t165.5 -44.5t120.5 -120.5t44.5 -165.5t-44.5 -165.5t-120.5 -120t-165.5 -44zM807 90
q-12 -2 -20 -12l-66 -90l-64 128q108 42 176 134l91 -136l-117 -24v0z" />
    <glyph glyph-name="xsdfinancialdata" unicode="&#xe652;" 
d="M922 77h-794v685q0 9 -8 17t-18 8v0q-9 0 -17 -8t-8 -17v-717q0 -10 8 -18t17 -8h7v0h813q9 0 17 8t8 18v6q0 26 -25 26zM237 122h83q14 0 26 12t12 26v115q0 15 -12 27t-26 12h-83q-15 0 -27 -12t-12 -27v-115q0 -14 12 -26t27 -12zM467 122h90q14 0 26 12t12 26v493
q0 14 -12 26t-26 12h-90q-14 0 -23 -11.5t-9 -26.5v-493q0 -15 9 -26.5t23 -11.5zM710 122h90q14 0 26 12t12 26v339q0 15 -12 27t-26 12h-90q-14 0 -26 -12t-12 -27v-339q13 -38 38 -38z" />
    <glyph glyph-name="xsdjinzi" unicode="&#xe653;" 
d="M512 -64q-90 0 -172 34t-145.5 97t-97.5 144.5t-34 171.5t34 171.5t97.5 144.5t145.5 97t172 34t172 -34t145.5 -97t97.5 -144.5t34 -171t-34 -171.5t-97.5 -145t-145.5 -97t-172 -34v0zM512 766q-77 0 -147.5 -29t-125 -83.5t-83.5 -124t-29 -146.5t29 -146.5t84 -124.5
q54 -54 124.5 -83t147.5 -29t147.5 29t125 83.5t83.5 124t29 146.5t-29 146.5t-83.5 124t-125 83.5t-147.5 29v0zM512 766zM736 415h-192q-96 0 0 0h-256q-12 0 -22 -8.5t-11 -21.5q-1 -14 9 -24t23 -10h257h-64h256q14 0 23.5 9.5t9.5 22.5t-9.5 22.5t-23.5 9.5v0zM736 415
z" />
    <glyph glyph-name="xsdtodo" unicode="&#xe654;" horiz-adv-x="1450" 
d="M522 225h252q8 21 19 39h-271v-39v0zM873 498h-351v-39h351v39zM405 -29q-16 0 -27.5 11.5t-11.5 27.5v762q0 16 11.5 27.5t27.5 11.5h605q16 0 27.5 -11.5t11.5 -27.5v-372q21 -2 39 -5v377q0 32 -23 55t-55 23h-605q-32 0 -55 -23t-23 -55v-761q0 -33 23 -56t55 -23
h433q-18 18 -33 40zM873 352v29h-351v-39h339q6 6 12 10v0zM1029 323q-81 0 -138 -57t-57 -138t57 -138.5t138 -57.5t138.5 57.5t57.5 137.5q0 82 -57.5 139t-138.5 57zM1029 -29q-64 0 -110 46t-46 110q0 65 46 111t110.5 46t110.5 -46t46 -111q0 -64 -46 -110t-111 -46v0z
M873 616h-351v-39h351v39zM1125 57l-69 69l65 65q11 11 0 21q-10 11 -20 0l-66 -66l-62 63q-11 11 -20 0q-11 -11 0 -21l62 -62l-66 -66q-11 -10 0 -20q10 -11 20 0l66 65l69 -69q11 -10 21 0t0 21z" />
    <glyph glyph-name="xsdtianjiayezhu" unicode="&#xe655;" horiz-adv-x="1059" 
d="M649 362l7 17q8 9 17 23.5t16 28.5t13 27t9 21l4 9q16 20 22 39t4 32t-6 23t-9 14l-5 5q2 9 3.5 55t-0.5 63q0 1 -1.5 8.5t-2 11t-2.5 12t-4.5 14.5t-6.5 16t-9 18t-12 18.5t-16 20.5q-13 16 -31.5 27.5t-35.5 17t-32.5 9t-24.5 3.5l-9 1h-36h-36q-3 0 -9 -0.5t-23.5 -4
t-33.5 -9t-35 -17t-32 -27.5q-8 -10 -15.5 -20.5t-12 -18.5t-9 -18t-6.5 -16t-4.5 -14.5t-3 -12t-1.5 -11t-1 -8.5q-3 -17 -1.5 -63t3.5 -55l-5 -5t-8.5 -14t-6.5 -23.5t5 -31.5t22 -40q31 -77 58 -108q7 -11 8 -17q0 -6 -1 -24t-4 -24q-33 -56 -74 -61q-22 -2 -42.5 0
t-42.5 -0.5t-34 -11.5q-21 -16 -47 -38.5t-58 -62t-40 -70.5q-36 -141 45 -163h527v54h-82q-53 -1 -221.5 0.5t-187.5 5.5q-21 6 -21 27.5t8 52.5q5 28 43 69.5t66 59.5q11 7 20.5 10t18.5 3.5t30.5 2.5t44.5 5q27 4 48.5 17.5t35 31.5t20.5 31.5t11 26.5q6 20 4 54t-7 39
t-20.5 31.5t-17.5 32.5l-16 39q-20 23 -24.5 43t-1 27t8.5 10t4 54q-1 6 -1.5 18.5t0 19.5t1 19.5t2.5 28t5 34.5q4 19 17.5 35t31 24.5t34 14.5t27.5 8l11 2h52q4 0 11.5 -1.5t27 -8t35 -15t30 -24.5t17.5 -35q4 -19 6 -34.5t2.5 -28t0.5 -19.5t-0.5 -19.5t-0.5 -18.5
q-1 -51 4 -54q4 -3 7.5 -10t-0.5 -26.5t-24 -43.5q-13 -31 -16 -39q-3 -6 -18.5 -32.5t-19.5 -31.5q-6 -5 -8 -39t4 -54q13 -38 38 -65l41 59q-6 8 -10 17q-4 5 -5 23t0 24zM1050 124l-2 2l-22 26l-214 246l-4 -5l-1 1l-212 -242l-22 -26q-1 0 -1 -1q-3 -4 -3 -9t3.5 -9
t8.5 -4h16v0h54v-229h18h18h254h36v41v188h54v0h10q5 0 8.5 3.5t3.5 9.5q0 4 -3 8zM941 144v-20v-21v-188h-254v188v21v20h-47l171 196l170 -196h-40z" />
    <glyph glyph-name="xsdtianjiazuke" unicode="&#xe656;" 
d="M859 41h132q14 0 23.5 9.5t9.5 23.5t-9.5 23.5t-23.5 9.5h-132v136q0 14 -9.5 23.5t-23 9.5t-23 -9.5t-9.5 -23.5v-136h-133q-14 0 -23.5 -9.5t-9.5 -23.5t9.5 -23.5t23.5 -9.5h133v-136q0 -14 9.5 -23.5t23 -9.5t23 9.5t9.5 23.5v136zM654 315q-4 5 -5 23t0 25l7 16
q8 9 17 23.5t16 28.5t13 27t9 21l4 9q16 20 22 39t4 32t-6 23t-9 14l-5 5q2 9 3.5 55t-0.5 63q0 1 -1.5 8.5t-2 11t-2.5 12t-4.5 14.5t-6.5 16t-9 18t-12 18.5t-16 20.5q-21 25 -54 39.5t-56 16.5l-23 2h-36h-36q-3 0 -9 -0.5t-23.5 -4t-33.5 -9t-35 -17t-32 -27.5
q-8 -10 -15.5 -20.5t-12 -18.5t-9 -18t-6.5 -16t-4.5 -14.5t-3 -12t-1.5 -11t-1 -8.5q-3 -17 -1.5 -63t3.5 -55l-5 -5t-8.5 -14t-6.5 -23.5t5 -31.5t22 -39q31 -77 58 -109q7 -11 8 -17q0 -6 -1 -24t-4 -23q-33 -57 -74 -62q-22 -2 -42.5 0t-42.5 -0.5t-34 -11.5
q-21 -16 -47 -38.5t-58 -62t-40 -70.5q-36 -140 45 -163h527v54h-82q-53 -1 -221.5 0.5t-187.5 6.5q-21 5 -21 26.5t8 52.5q5 28 43 69.5t66 59.5q11 7 20.5 10t18.5 3.5t30.5 2.5t44.5 6q27 3 48.5 16.5t35 31.5t20.5 31.5t11 26.5q6 20 4 54t-7 39t-20.5 31.5t-17.5 32.5
l-16 39q-20 24 -24.5 43.5t-1 26.5t8.5 10t4 54q-1 6 -1.5 18.5t0 19.5t1 19.5t2.5 28t5 34.5q4 19 17.5 35t31 24.5t34 14.5t27.5 8l11 2h52q4 0 11.5 -1.5t27 -8t35 -15t30 -24.5t17.5 -35q4 -19 6 -34.5t2.5 -28t0.5 -19.5t-0.5 -19.5t-0.5 -18.5q-1 -51 4 -54
q4 -3 7.5 -10t-0.5 -26.5t-24 -43.5q-13 -31 -16 -39q-3 -6 -18.5 -32.5t-19.5 -31.5q-6 -5 -8 -39t4 -54q13 -38 38 -65l41 59q-6 8 -10 17z" />
    <glyph glyph-name="xsdgaikuang" unicode="&#xe657;" 
d="M0 -77v666v51v51q0 43 30 73t72 30h820q42 0 72 -30t30 -73v-51v-51v-666h-1024zM153.5 742q-21.5 0 -36.5 -15t-15 -36t15 -36t36.5 -15t36.5 15t15 36t-15 36t-36.5 15zM307 742q-21 0 -36 -15t-15 -36t15 -36t36 -15t36 15t15 36t-15 36t-36 15zM461 742
q-21 0 -36 -15t-15 -36t15 -36t36 -15t36 15t15 36t-15 36t-36 15zM973 589h-922v-615h922v615zM256 77h-102v153h102v-153zM461 77h-103v256h103v-256zM666 77h-103v409h103v-409zM870 77h-102v256h102v-256z" />
    <glyph glyph-name="xsdyanjing" unicode="&#xe658;" 
d="M511.5 682.5q-57.5 -0.5 -124 -28t-122 -67t-102 -82.5t-73 -78.5t-26.5 -50.5q0 -16 24.5 -51.5t69.5 -79.5t99.5 -84t123 -66.5t131.5 -25.5t131.5 29.5t123 69.5t99.5 84.5t69.5 77.5t24.5 45.5t-26.5 46t-73 79t-102 85.5t-122.5 69t-124.5 27.5zM512 171
q-85 0 -145 60t-60 144.5t60 144.5t145 60t145 -60t60 -144.5t-60 -144.5t-145 -60zM428 375v0q0 -34 24.5 -58.5t59 -24.5t59 24.5t24.5 58.5v0v0q0 34 -24.5 58.5t-59 24.5t-59 -24.5t-24.5 -58.5v0z" />
    <glyph glyph-name="zufang" unicode="&#xe659;" horiz-adv-x="1278" 
d="M778 591q54 24 114 32l-306 259q-17 14 -39 14t-39 -14l-487 -413q-19 -16 -21 -40.5t14 -43.5t41 -21t43 14l8 7v-476q0 -15 11 -26t27 -11h371h14h223q-51 28 -83 56q-53 49 -86 114q-36 80 -36 191q0 68 22.5 129.5t51.5 99t66.5 69t56.5 42.5t34 18v0zM439 195h-116
v115h116v-115v0zM439 195zM280 746q0 18 -13 31.5t-32 13.5h-85q-19 0 -32 -13.5t-13 -31.5v-159l175 146v13v0v0v0zM280 746zM1022 366q-23 0 -39.5 -16.5t-16.5 -40t16 -40.5q17 -16 41 -16t40 16q16 17 16 40.5t-16.5 40t-40.5 16.5v0zM1022 366zM943 564q-90 0 -167 -45
t-122 -122t-45 -167.5t45 -167t122 -121.5t167.5 -45t167.5 45t121.5 121.5t44.5 167t-44.5 167.5t-121.5 122t-168 45v0zM1103 229q-33 -33 -81 -33q-30 0 -57 16l-73 -73l33 -33q9 -9 9 -20.5t-8.5 -20t-20 -8.5t-20.5 9l-33 33l-53 -54q-9 -8 -20.5 -8t-20 8.5t-8.5 20
t9 20.5l166 166q-16 27 -16 57q0 47 33 80.5t80.5 33.5t80.5 -33.5t33 -80.5t-33 -80v0zM1103 229z" />
    <glyph glyph-name="xsdmima" unicode="&#xe65a;" 
d="M784 -31v488h-583v-488h583v0zM342 652v-99h301v99q0 61 -44.5 105.5t-106 44.5t-106 -44.5t-44.5 -105.5v0zM784 553q40 0 69 -28t29 -68v-488q0 -40 -29 -68t-69 -28h-583q-40 0 -69 28t-29 68v488q0 40 29 68t69 28h48v99q0 101 71.5 172.5t172 71.5t172 -71.5
t71.5 -172.5v-99h48v0zM493 115q-40 0 -69.5 29.5t-29.5 68.5t29.5 68.5t69 29.5t69 -29.5t29.5 -68.5t-29.5 -68.5t-68.5 -29.5v0z" />
    <glyph glyph-name="xsdshouji" unicode="&#xe65b;" 
d="M715 105v652h-419v-652h419v0zM505 -80q30 0 50 20t20 49.5t-20 49.5t-49.5 20t-49.5 -20t-20 -49.5t20 -49.5t49 -20v0zM693 896q47 0 81 -35t34 -83v-788q0 -48 -34 -83t-81 -35h-373q-47 0 -81 35t-34 83v788q0 48 34 83t81 35h373v0z" />
    <glyph glyph-name="xsdyanzhengma" unicode="&#xe663;" 
d="M468 384h-65q7 -11 7 -24q0 -21 -15 -35t-36.5 -14t-36.5 14t-15 35q0 13 7 24h-99q16 -136 98 -244t200 -146v1q117 38 198.5 146t98.5 243v0v249l-298 135v-360q21 0 36 -14t15 -34.5t-15 -34.5t-36 -14t-36 14t-15 35q0 13 7 24zM512 408v360l-298 -135v-249h100
q15 24 44.5 24t44.5 -24h65q15 24 44 24zM512 864l384 -175v-261q0 -119 -49.5 -229t-138 -188.5t-196.5 -105.5q-108 27 -196.5 105.5t-138 188.5t-49.5 229v261zM665.5 311q21.5 0 36.5 14t15 34.5t-15 34.5t-36.5 14t-36.5 -14t-15 -34.5t15 -34.5t36.5 -14z" />
    <glyph glyph-name="xsdchenggong" unicode="&#xe664;" 
d="M512 896q-139 0 -257 -68.5t-186.5 -186.5t-68.5 -257t68.5 -257t186.5 -186.5t257 -68.5t257 68.5t186.5 186.5t68.5 257t-68.5 257t-186.5 186.5t-257 68.5v0zM833 553l-412 -412q-4 -5 -12 -6q-12 -3 -22 6l-212 212q-7 7 -7 16t7 16l26 26q7 7 16 7t16 -7l171 -171
l371 371q7 6 16 6t15 -7l26 -26q7 -6 7 -15.5t-6 -15.5v0z" />
    <glyph glyph-name="xsdshibei" unicode="&#xe665;" 
d="M495 891q-100 0 -191 -39t-157 -105t-105 -157t-39 -191.5t39 -191.5t105 -157t157 -105t191.5 -39t191.5 39t157 105t105 157t39 191.5t-39 191.5t-105 157t-157 105t-192 39v0zM744 197q10 -10 10 -25t-10.5 -25t-25 -10t-24.5 10l-198 200l-200 -198
q-10 -10 -24.5 -10t-25 10.5t-10.5 25t11 24.5l200 198l-199 200q-10 10 -10 25t10.5 25t25 10t24.5 -10l199 -201l199 198q11 11 25.5 10.5t24.5 -10.5t10 -24.5t-10 -25.5l-200 -198l198 -199v0z" />
    <glyph glyph-name="xsdcaiwu" unicode="&#xe666;" horiz-adv-x="1456" 
d="M1375 26h-636q28 48 43 102h593q21 0 36.5 -15t15.5 -36t-15.5 -36t-36.5 -15v0v0zM1375 179h-583q3 28 3 50.5t-3 51.5h583q21 0 36.5 -15t15.5 -36t-15.5 -36t-36.5 -15v0v0zM1375 332h-593q-15 54 -43 102h636q21 0 36.5 -15t15.5 -36t-15.5 -36t-36.5 -15v0v0z
M1375 485h-671q-52 63 -123 101h794q21 0 36.5 -14.5t15.5 -36t-15.5 -36t-36.5 -14.5v0v0zM1375 637h-831q-21 0 -36.5 15t-15.5 36t15.5 36t36.5 15h831q21 0 36.5 -15t15.5 -36t-15.5 -36t-36.5 -15v0v0zM1375 790h-831q-21 0 -36.5 15t-15.5 36t15.5 36t36.5 15h831
q21 0 36.5 -15t15.5 -36t-15.5 -36t-36.5 -15v0v0zM752 230q0 -97 -48.5 -179t-132.5 -130t-182.5 -48t-182 48t-132.5 130t-49 179t49 179t132.5 129.5t182 47.5t182.5 -47.5t132.5 -129.5t48.5 -179v0v0zM517 191q-8 18 -20.5 31.5t-28.5 23.5t-33 17q-15 7 -33 15
q-17 7 -29 14q-13 8 -21 18q-7 10 -7 24q0 9 3.5 17.5t10.5 14t17 9t24 3.5q18 0 33 -4t26 -10q13 -5 19 -9q8 -5 11.5 -5t6 2t3.5 6.5t1.5 10.5t0.5 15t-1 14q0 6 -0.5 9.5t-2 6t-4.5 5.5t-13 8t-23 8.5t-28 5.5q-1 0 -3.5 0.5l-2.5 0.5v52h-51v-52q-14 -2 -28 -6
q-25 -7 -44 -22t-30.5 -37.5t-11.5 -51.5q0 -26 8 -44q8 -19 20.5 -32.5t28.5 -23.5q15 -9 32 -17q22 -10 33 -14q16 -7 28.5 -15t20.5 -18t8 -24q0 -12 -4.5 -22t-13.5 -16.5t-21 -10.5t-28 -4q-23 0 -42 6q-18 5 -31 11q-12 7 -20.5 12t-13.5 5q-3 0 -5.5 -1.5t-4 -6
t-1.5 -10.5q-1 -8 -1 -17q0 -15 2 -22q2 -8 6 -12t14 -10t23 -10q15 -5 33 -8q19 -4 41 -4h0.5h1.5v-49h51v56q1 0 3.5 0.5t3.5 0.5q29 9 49 25q21 16 33.5 40.5t12.5 57.5q0 25 -8 43v0v0zM704 -25h671q21 0 36.5 -15t15.5 -36t-15.5 -36t-36.5 -15h-794q71 39 123 102v0v0
z" />
    <glyph glyph-name="fankuizhongxin" unicode="&#xe667;" 
d="M836 803h-193q-15 41 -51 67t-80 26t-80 -26t-51 -67h-193q-38 0 -65.5 -27t-27.5 -65v-741q0 -38 27.5 -65.5t65.5 -27.5h648q38 0 65.5 27.5t27.5 65.5v741q0 38 -27.5 65t-65.5 27v0zM512 803q19 0 32.5 -13.5t13.5 -32.5t-13.5 -32.5t-32.5 -13.5t-32.5 13.5
t-13.5 32.5t13.5 32.5t32.5 13.5v0zM836 -30h-648v741h92v-139h464v139h92v-741zM292 161h455v-76h-455v76zM292 313h455v-76h-455v76zM292 464h455v-76h-455v76z" />
    <glyph glyph-name="xsdbangnihu" unicode="&#xe668;" 
d="M522 88q8 0 15 1q37 5 66 28.5t41 59.5q2 6 -4 9t-10 -3q-2 -4 -7.5 -9.5t-30 -17t-57.5 -15.5q-18 -3 -33 -3q-54 0 -78 21q-4 4 -9 0t-2 -10q18 -28 47 -44.5t62 -16.5v0zM931 559h-1.5h-0.5q-34 146 -150.5 241.5t-268.5 95.5q-156 0 -274.5 -100.5t-147.5 -252.5
q-29 -5 -47.5 -27.5t-18.5 -51.5v-160q0 -33 23.5 -57t56.5 -24q37 0 62 30q26 -70 78 -124.5t121 -84.5q1 3 3.5 6.5t4.5 3.5t4 -2q-27 21 -65 79t-49 131q-6 37 17 68.5t56 38.5q32 6 102 19.5t106 20.5q66 12 93 73q10 21 14 56q1 7 8 7q4 0 7 -4l2 2q81 -118 90 -221
q7 -90 -7 -146t-71 -108v0q-2 -2 -2 -5t3 -5q1 0 1.5 -0.5l0.5 -0.5h2h1t2 1t2 1q62 34 107.5 89t66.5 123q19 -28 52 -35q-25 -115 -120 -186.5t-227 -82.5q-8 19 -26 31.5t-40 12.5q-29 0 -50 -20.5t-21 -49t21 -49t50 -20.5q23 0 41.5 13.5t25.5 34.5q153 13 261.5 98.5
t133.5 222.5q22 9 36 29.5t14 45.5v162q0 34 -24 57.5t-58 23.5v0zM857 513q-40 108 -134.5 175.5t-212.5 67.5q-117 0 -211.5 -67t-134.5 -174l-9 9q22 129 122.5 215t232.5 86t232 -85t123 -214q-5 -7 -8 -13v0zM363 44v0v0v0z" />
    <glyph glyph-name="xsdfuwu" unicode="&#xe669;" horiz-adv-x="1069" 
d="M212 785l-212 103v-532l6 -3q3 -2 8.5 -4t18.5 1.5t20 18.5l170 369l0.5 1t1 3t1 5l1 6t0.5 6t-0.5 6.5t-2 7t-4.5 6.5t-8 6v0zM809 704q-14 -2 -32 -0.5t-37.5 5.5t-35.5 8.5t-26 7.5l-11 4q-9 5 -32.5 9t-42.5 6l-19 1q-25 2 -58 -8t-54 -21l-20 -11h-183l-27 -58h121
q-14 -18 -22.5 -40t-9.5 -35l-2 -13q1 -29 -4 -53.5t-11 -33.5l-5 -10q-8 -23 6.5 -38t33.5 -18l19 -3q32 5 56 20t35.5 32.5t18.5 34.5t9 28l1 11q11 18 25 28t26.5 12t24 0.5t17.5 -3.5l7 -3l337 -307q12 -12 14 -27t-3 -24l-4 -9q-7 -13 -20 -18t-23 -3l-9 2l-239 177
q-19 5 -26 -2.5t-5 -18.5l2 -10l231 -175q8 -11 8 -22.5t-4 -18.5l-4 -6q-5 -10 -15.5 -13t-18.5 0l-8 2l-209 154q-18 2 -24 -7t-3 -18l2 -9l177 -133q22 -24 6 -48q-7 -12 -18 -15.5t-18 -1.5l-7 2l-166 122q-18 2 -25 -5.5t-5 -15.5l2 -9l112 -88q-2 -22 -14.5 -29.5
t-24.5 -4.5l-12 4l-29 23q-5 24 -36 27l-33 26q2 23 -19 44q-8 10 -21.5 13t-22.5 1l-9 -2q-2 4 -6 8t-8 6l-4 2q1 14 -3 26.5t-9 17.5l-5 5q-10 12 -24.5 16.5t-24.5 2.5l-9 -1q-1 2 -4 5.5t-5 5.5l-3 2q3 20 1 33t-7 20l-4 7q-8 15 -26 20.5t-31 3.5l-14 -2l-81 106
l-23 -51l68 -91l-50 -72q-7 -23 -3.5 -38.5t7.5 -22.5t5 -7q27 -26 48.5 -23t35 13t13.5 12q-22 -49 7 -80q25 -23 45.5 -19.5t34 13t13.5 11.5q-8 -14 -10.5 -27t-1.5 -21t5 -15t6 -8.5t3 -2.5v0q15 -17 31.5 -20.5t28.5 2t22 14t15 15.5l5 8q-11 -22 -8.5 -38t10.5 -25
l8 -10q28 -20 48.5 -9.5t32.5 25t12 17.5q10 -9 24.5 -13t24.5 -3l9 1q23 4 38 17t19 22t4 11q17 -12 34.5 -17.5t29 -4.5t21 4t14.5 7l4 3q16 11 23.5 26.5t7.5 25.5l1 10q23 -4 41 1.5t25 13.5l7 7q13 11 18.5 27t4.5 28l-1 11q29 1 49 13t28 30q15 32 12.5 57t-13.5 41
l-12 15l27 62l-165 355v0zM851 784q-1 -1 -2.5 -2t-5.5 -4t-5.5 -7.5t-2.5 -11.5t4 -16q3 -3 47.5 -97t86.5 -185.5l42 -91.5q1 -1 2 -3t5 -6.5t8.5 -6.5t11 -3.5t12.5 2.5l15 7v537l-218 -112v0z" />
    <glyph glyph-name="xsdhetongxiazai" unicode="&#xe66a;" 
d="M320 354q-1 -2 -12 -14.5t-12 -14.5q-13 -17 -17 -41.5t2 -40.5q4 -15 16 -23.5t22 -10.5t26 -4q24 -2 50.5 -2.5t62.5 0t51 0.5h160q54 -1 71 38q20 47 -17 87l-26 26q-29 29 -2 62q34 42 47 62q56 88 39 190t-99 167q-82 66 -187 60.5t-179 -78.5q-52 -52 -67 -124.5
t5 -145t67 -132.5q11 -13 12.5 -24.5t-2 -19t-11.5 -17.5v0v0v0zM905 -128h1v82h-1h-792h-1v-82v0h1h792v0zM957 70q0 43 -19.5 64t-61.5 21q-360 0 -734 -1q-42 0 -61 -19t-19 -61v-80h895v25v28v23v0v0z" />
    <glyph glyph-name="xsdshuididai" unicode="&#xe66b;" horiz-adv-x="1272" 
d="M158 694h79v-815h-51q-70 0 -128 49t-58 115v496q0 68 45 111.5t113 43.5v0v0zM616 145v116q-54 16 -80 47q-25 32 -25 77t28.5 76t76.5 36v27h40v-27q45 -6 70.5 -30.5t33.5 -66.5l-70 -9q-7 33 -34 44v-108q67 -18 91 -46.5t24 -73.5q0 -50 -30 -84.5t-85 -42.5v-52
h-40v51q-48 6 -78 35.5t-38 84.5l72 8q5 -22 17 -39q12 -15 27 -23v0v0zM616 436q-16 -5 -26 -19q-10 -13 -10 -29q0 -15 9 -27.5t27 -20.5v96v0v0zM656 141q21 4 34 19.5t13 36.5q0 18 -11 31.5t-36 20.5v-108v0v0zM316 694v109q0 38 27.5 65.5t65.5 27.5h450
q38 0 65.5 -27.5t27.5 -65.5v-109h-56v67q0 33 -22.5 56t-54.5 23h-370q-32 0 -54.5 -23t-22.5 -56v-67h-56v0v0zM1014 694h40h53q68 0 116 -48t48 -116v-487q0 -67 -48 -115.5t-116 -48.5h-93v815v0v0zM843 -121v815h-435v-815h435v0z" />
    <glyph glyph-name="xsdtianjiagongyu" unicode="&#xe66c;" horiz-adv-x="1171" 
d="M897 58v-145q0 -15 10 -25.5t24.5 -10.5t24.5 10.5t10 25.5v145h140q14 0 24 10.5t10 25.5t-10 25t-24 10h-140v146q0 14 -10 24.5t-24.5 10.5t-24.5 -10.5t-10 -24.5v-146h-140q-14 0 -24 -10t-10 -25t10 -25.5t24 -10.5h140zM1052 352v289q0 27 -18.5 45.5t-44.5 18.5
v0h-319v127q0 27 -18.5 45.5t-44.5 18.5h-510q-26 0 -44.5 -18.5t-18.5 -45.5v-891q0 -26 18.5 -44.5t44.5 -18.5h665v63h-92v700h287q13 0 22.5 -9t9.5 -22v-258h63zM607 -59h-159v159q0 14 -9.5 23t-22.5 9h-128q-13 0 -22 -9t-9 -23v-159h-128q-13 0 -22.5 9.5t-9.5 22.5
v828q0 13 9.5 22t22.5 9h446q13 0 22.5 -9t9.5 -22v-860v0zM798 514h63v-64h-63v64zM416 514h63v-64h-63v64zM416 323h63v-64h-63v64zM225 514h63v-64h-63v64v0zM416 705h63v-64h-63v64zM225 705h63v-64h-63v64v0zM225 323h63v-64h-63v64v0zM384 -59h-64v128h64v-128z" />
    <glyph glyph-name="xsdyingyong" unicode="&#xe66e;" horiz-adv-x="1059" 
d="M446 560q0 -43 -30 -73t-73 -30h-234q-42 0 -72 30t-30 73v234q0 42 30 72t72 30h234q43 0 73 -30t30 -72v-234v0zM1031 -26q0 -42 -30 -72t-73 -30h-234q-42 0 -72 30t-30 72v234q0 43 30 73t72 30h234q43 0 73 -30t30 -73v-234v0zM1031 560q0 -43 -30 -73t-73 -30h-234
q-42 0 -72 30t-30 73v234q0 42 30 72t72 30h234q43 0 73 -30t30 -72v-234v0zM446 -26q0 -42 -30 -72t-73 -30h-234q-42 0 -72 30t-30 72v234q0 43 30 73t72 30h234q43 0 73 -30t30 -73v-234v0z" />
    <glyph glyph-name="xsdyupingpai" unicode="&#xe66f;" horiz-adv-x="1120" 
d="M815 44h-544q-27 0 -45 -20t-18 -50.5t18 -51t45 -20.5h544q27 0 45 20.5t18 51t-18 50.5t-45 20v0v0zM1066 682q-7 6 -14 11q-30 21 -65 21q-47 0 -80.5 -33.5t-33.5 -80.5q0 -58 47 -93q-17 -19 -35.5 -38t-48 -40t-45.5 -17q-18 6 -32 42.5t-21 88t-9.5 79.5t-3.5 48
q41 6 68.5 38t27.5 74q0 47 -33.5 80.5t-81 33.5t-80.5 -33.5t-33 -80.5q0 -32 16.5 -59t43.5 -42q-7 -18 -16 -38t-24 -49t-30.5 -47t-27.5 -18q-13 0 -28.5 19t-30.5 49t-23.5 49.5t-15.5 36.5q26 15 41.5 41.5t15.5 57.5q0 47 -33 80.5t-80.5 33.5t-81 -33.5t-33.5 -80.5
q0 -37 22 -66.5t56 -41.5q10 -4 21 -5q-1 -10 -2.5 -25.5t-8.5 -57t-14.5 -73.5t-20.5 -60t-27 -31q-20 -5 -47.5 13t-43 35.5t-29.5 35.5q49 35 49 94q0 47 -33.5 80.5t-80.5 33.5q-14 0 -28 -4q-53 -5 -73 -57q-13 -25 -13 -53q0 -39 23 -70q13 -18 33 -29q27 -15 58 -15
q8 0 17 1q4 -30 11 -69.5t22 -109.5t36.5 -116.5t44.5 -47.5q25 -1 585 -1q21 0 42 34.5t36 83.5t27.5 98t19.5 84l6 34l1 9h12q30 0 56 15q36 12 46 49q12 24 12 50q0 48 -35 82v0v0z" />
    <glyph glyph-name="xsdbanbenxinxi" unicode="&#xe670;" 
d="M513 896q-104 0 -199 -40.5t-164 -109t-109.5 -163.5t-40.5 -199t40.5 -199t109.5 -163.5t164 -109t199.5 -40.5t199 40.5t163 109t108.5 163.5t40 199t-40 199t-108.5 163.5t-163 109t-199.5 40.5v0zM832 141q-2 -2 -16.5 7.5t-28.5 19.5l-13 10l-23 -32q3 -3 8.5 -7
t16 -13t17 -16t4.5 -9q-110 -109 -266 -116q-1 0 -1 4.5t-0.5 11.5t-0.5 15t0.5 16.5t0.5 15v11v4.5h-35l-2 -77q-127 6 -227 83q-19 15 -37 33q-2 2 8.5 13t22.5 22l11 10l-28 31q-32 -23 -50 -35q-75 99 -80 223q0 1 8 1t19 -0.5t22 -0.5t19 -0.5l8 -0.5l1 38
q-44 -1 -77 -2q3 59 25.5 120t56.5 108q1 1 12 -9t22 -21l11 -11l29 40q-35 28 -41 35q56 56 129.5 87t156.5 31q81 0 154.5 -30.5t129.5 -85.5q-6 -4 -18 -14t-22 -19l-9 -8l27 -33l54 36q76 -98 83 -223l-80 -1l1 -38q20 0 39.5 1t39.5 -1q-6 -125 -81 -224v0zM511 745
l-88 -324q0 -3 -1.5 -8t-3 -18.5t-1 -26.5t5 -28.5t14 -26.5t28 -18.5t44.5 -7.5h4t11 1.5t16 3.5t18 7t17.5 11.5t14.5 16.5t10.5 23t2.5 31t-8 39l-84 325v0z" />
    <glyph glyph-name="xuanzhong" unicode="&#xe671;" 
d="M197 382q0 -130 92 -222.5t222.5 -92.5t223 92.5t92.5 223t-92.5 222.5t-223 92t-222.5 -92t-92 -223v0zM512 851q-96 0 -182.5 -37t-149.5 -100t-100 -149.5t-37 -182t37 -182.5t100 -149.5t149.5 -100t182 -37.5t182.5 37.5t149.5 100t100 149.5t37.5 182.5t-37.5 182
t-100 149.5t-149.5 100t-182 37v0zM512 -34q-113 0 -209 56t-151.5 151.5t-55.5 208.5t55.5 209t151.5 151.5t209 55.5t208.5 -55.5t151.5 -151.5t56 -209t-56 -208.5t-151.5 -151.5t-208.5 -56v0zM512 -34z" />
    <glyph glyph-name="qiehuan" unicode="&#xe673;" 
d="M619 747v-214h-555v-85h896zM405 21v214h555v85h-896z" />
    <glyph glyph-name="xsdgongyu" unicode="&#xe674;" horiz-adv-x="1025" 
d="M1007 -41h-50v620q0 27 -23 41l-254 148q-23 13 -46.5 -0.5t-23.5 -40.5v-768h-53v890q0 25 -21 39t-44 4l-397 -170q-28 -12 -28 -43v-720h-50q-7 0 -12 -4.5t-5 -11.5v-54q0 -7 5 -12t12 -5h990q7 0 12 5t5 12v54q0 7 -5 11.5t-12 4.5v0v0zM739 600q0 7 5 12t12 5h53
q6 0 11 -5t5 -12v-53q0 -6 -5 -11t-11 -5h-53q-7 0 -12 5t-5 11v53v0v0zM739 467q0 7 5 12t12 5h53q6 0 11 -5t5 -12v-52q0 -7 -5 -12t-11 -5h-53q-7 0 -12 5t-5 12v52v0v0zM739 335q0 6 5 11t12 5h53q6 0 11 -5t5 -11v-53q0 -7 -5 -12t-11 -5h-53q-7 0 -12 5t-5 12v53v0v0z
M739 202q0 7 5 11.5t12 4.5h53q6 0 11 -4.5t5 -11.5v-53q0 -7 -5 -12t-11 -5h-53q-7 0 -12 5t-5 12v53v0v0zM739 69q0 7 5 12t12 5h53q6 0 11 -5t5 -12v-53q0 -7 -5 -11.5t-11 -4.5h-53q-7 0 -12 4.5t-5 11.5v53v0v0zM348 733q0 7 5 11.5t12 4.5h52q7 0 12 -4.5t5 -11.5v-53
q0 -7 -5 -11.5t-12 -4.5h-52q-7 0 -12 4.5t-5 11.5v53v0v0zM348 600q0 7 5 12t12 5h52q7 0 12 -5t5 -12v-53q0 -6 -5 -11t-12 -5h-52q-7 0 -12 5t-5 11v53v0v0zM348 467q0 7 5 12t12 5h52q7 0 12 -5t5 -12v-52q0 -7 -5 -12t-12 -5h-52q-7 0 -12 5t-5 12v52v0v0zM348 335
q0 6 5 11t12 5h52q7 0 12 -5t5 -11v-53q0 -7 -5 -12t-12 -5h-52q-7 0 -12 5t-5 12v53v0v0zM348 202q0 7 5 11.5t12 4.5h52q7 0 12 -4.5t5 -11.5v-53q0 -7 -5 -12t-12 -5h-52q-7 0 -12 5t-5 12v53v0v0zM348 69q0 7 5 12t12 5h52q7 0 12 -5t5 -12v-53q0 -7 -5 -11.5t-12 -4.5
h-52q-7 0 -12 4.5t-5 11.5v53v0v0zM188 600q0 7 5 12t12 5h53q6 0 11 -5t5 -12v-53q0 -6 -5 -11t-11 -5h-53q-7 0 -12 5t-5 11v53v0v0zM188 467q0 7 5 12t12 5h53q6 0 11 -5t5 -12v-52q0 -7 -5 -12t-11 -5h-53q-7 0 -12 5t-5 12v52v0v0zM188 335q0 6 5 11t12 5h53q6 0 11 -5
t5 -11v-53q0 -7 -5 -12t-11 -5h-53q-7 0 -12 5t-5 12v53v0v0zM188 202q0 7 5 11.5t12 4.5h53q6 0 11 -4.5t5 -11.5v-53q0 -7 -5 -12t-11 -5h-53q-7 0 -12 5t-5 12v53v0v0zM188 69q0 7 5 12t12 5h53q6 0 11 -5t5 -12v-53q0 -7 -5 -11.5t-11 -4.5h-53q-7 0 -12 4.5t-5 11.5v53
v0v0z" />
    <glyph glyph-name="xsdtianjiafangyuan" unicode="&#xe679;" horiz-adv-x="1143" 
d="M844 -128h-591q-34 0 -57.5 24.5t-23.5 59.5v413h-96q-19 0 -34 11t-21.5 29t-1.5 36.5t20 31.5l477 400q23 19 52 19t52 -20l114 -93q12 -10 13.5 -26t-8 -28t-24.5 -14t-28 8l-114 94q-1 0 -1 1q-5 3 -9 0l-444 -373h90q15 0 26 -11t11 -27v-451q0 -7 7 -7h591q7 0 7 7
v111q0 16 11 27.5t26 11.5t26 -11.5t11 -27.5v-111q0 -35 -23.5 -59.5t-57.5 -24.5v0zM695 461h379h-379v0zM1074 422h-379q-15 0 -26 11.5t-11 27t11 27t26 11.5h379q15 0 26 -11.5t11 -27t-11 -27t-26 -11.5v0zM885 655v-389v389v0zM885 227q-16 0 -27 11.5t-11 27.5v389
q0 16 11 27.5t26.5 11.5t26.5 -11.5t11 -27.5v-389q0 -16 -11 -27.5t-26 -11.5v0z" />
    <glyph glyph-name="xsdfangyuankong" unicode="&#xe67a;" 
d="M512 896l-512 -512v-64h27l485 485l485 -485h27v64zM878 293q-61 0 -104 -43t-43 -103q0 -52 32.5 -92t82.5 -51v-132h64v132q49 11 81.5 51t32.5 92q0 60 -43 103t-103 43v0zM878 65q-34 0 -58 24t-24 58t24 58t58 24t58 -24t24 -58t-24 -58t-58 -24v0zM667 147
q0 84 58.5 145.5t143.5 64.5l-357 357l-383 -383v-26v-433h286v322h194v-322h172v88q-51 26 -82.5 76.5t-31.5 110.5v0z" />
    <glyph glyph-name="xsdyuangongkong" unicode="&#xe67b;" horiz-adv-x="1156" 
d="M613 617q24 -60 62 -101.5t80 -41.5t78 41.5t58 101.5q13 1 25 14t17 32q6 24 -0.5 44t-21.5 26q-4 69 -50 116t-109.5 47t-110 -47t-50.5 -116q-15 -6 -21.5 -26t-0.5 -44q5 -20 17.5 -33t26.5 -13v0zM162 617q24 -60 62 -101.5t80 -41.5t78 41.5t58 101.5q13 1 25 14
t17 32q6 24 -0.5 44t-21.5 26q-4 68 -50 115.5t-109.5 47.5t-110 -47t-50.5 -116q-15 -6 -21.5 -26t-0.5 -44q5 -20 17.5 -33t26.5 -13v0zM463 493l-128 -219l-16 99q17 11 17 32q0 15 -10.5 26t-26 11t-26.5 -11t-11 -26q0 -21 18 -32l-16 -97l-128 217
q-55 -24 -90.5 -61.5t-43.5 -81.5h-2v-319h1q11 -20 96.5 -33.5t202.5 -13.5t202.5 13.5t96.5 33.5h1l-2 319q-8 44 -43.5 81.5t-91.5 61.5v0zM910 449q52 0 99 -21q-36 40 -95 65l-26 -45q11 1 22 1v0zM731 373l-1 -5q25 28 56 46q-3 12 -13 20t-23 8q-15 0 -26 -11
t-11 -26q0 -21 18 -32v0zM668 205q0 57 25 109l-106 179q-17 -7 -34 -17q64 -52 76 -121l1 -2l2 -354q64 -15 119 -15q27 0 54 1q-62 30 -99.5 89t-37.5 131v0zM800 373q-71 -47 -87.5 -131t30 -155t130 -88t154 30.5t87 131.5t-30.5 155t-130 88t-153 -31v0v0zM985 92
q-45 -31 -98 -20t-83 56.5t-19.5 99t56 84t98.5 19.5t83 -56.5t19.5 -99t-56.5 -83.5v0v0zM978 19l81 -123q12 -19 33.5 -23t39.5 8t22.5 33.5t-7.5 39.5l-82 124l-87 -59v0v0z" />
    <glyph glyph-name="xsdzhangdankong" unicode="&#xe67c;" horiz-adv-x="1078" 
d="M928 -28q-58 -45 -131 -45q-88 0 -150.5 62t-62.5 150t62.5 150.5t150.5 62.5t150 -62.5t62 -150.5q0 -58 -29 -107l86 -86q12 -12 12 -28.5t-11.5 -28t-28 -11.5t-28.5 12zM823 457v304q0 56 -39.5 95.5t-94.5 39.5h-442h112v-359h-359v112v-627q0 -56 39.5 -95.5
t95.5 -39.5h467q-58 44 -91 110t-33 142q0 70 29 133h-367q-14 0 -24 9.5t-10 23.5t10 23.5t24 9.5h408q31 39 73 67h-481q-14 0 -24 9.5t-10 23.5t10 23.5t24 9.5h544q11 0 20 -6.5t12 -17.5q39 11 81 11q13 0 26 -1zM89 598h206v209l2 1q-2 6 -2 10v78l-295 -298h88h1z
M496 737h190q13 0 22 -10t9 -23.5t-9 -23.5t-22 -10h-190q-13 0 -22 10t-9 23.5t9 23.5t22 10zM496 604h190q13 0 22 -10t9 -23.5t-9 -23.5t-22 -10h-190q-13 0 -22 10t-9 23.5t9 23.5t22 10zM106 172q0 14 10 23.5t23 9.5h173q14 0 23.5 -9.5t9.5 -23.5t-9.5 -23.5
t-23.5 -9.5h-173q-13 0 -23 9.5t-10 23.5zM797 6q55 0 94 39t39 94t-39 94t-94 39t-94 -39t-39 -94t39 -94t94 -39z" />
    <glyph glyph-name="xsdtuiguang" unicode="&#xe67d;" horiz-adv-x="1164" 
d="M640 878l-308 -183v-582l308 -183q44 -25 76 -8t32 66v831q0 51 -32 70t-76 -11v0zM0 570v-332q0 -50 37.5 -87.5t87.5 -37.5h124v582h-124q-50 0 -87.5 -37.5t-37.5 -87.5v0zM1122 445h-166q-19 0 -30.5 -11t-11.5 -30t11.5 -30.5t30.5 -11.5h166q19 0 30.5 11.5
t11.5 30.5t-11.5 30t-30.5 11v0zM1097 22l-141 83q-12 7 -29.5 3.5t-28.5 -20.5q-8 -11 -4.5 -29t20.5 -29l142 -83q11 -8 28.5 -4.5t29.5 20.5q6 13 0.5 32.5t-17.5 26.5v0zM948 703l141 83q13 7 17.5 23.5t-1.5 34.5q-6 13 -21.5 18t-27.5 -1l-142 -83q-12 -6 -17 -22.5
t1 -35.5q6 -13 21.5 -18t28.5 1v0z" />
    <glyph glyph-name="zhankai" unicode="&#xe67e;" 
d="M962 834v-900h-900z" />
    <glyph glyph-name="xsdaccounting" unicode="&#xe68d;" 
d="M947 896h-768h-51v-51v-154h-26q-11 0 -18 -7t-7 -18.5t7 -18.5t18 -7h26v-205h-26q-11 0 -18 -7t-7 -18.5t7 -18.5t18 -7h26v-205h-26q-11 0 -18 -7t-7 -18.5t7 -18.5t18 -7h26v-154v-51h51h768q19 0 35 16t16 35v871q0 19 -16 35t-35 16zM947 0q0 -12 -7 -19t-18 -7
h-692h-25h-26v26v128h26q11 0 18 7t7 18.5t-7 18.5t-18 7h-26v205h26q11 0 18 7t7 18.5t-7 18.5t-18 7h-26v205h26q11 0 18 7t7 18.5t-7 18.5t-18 7h-26v128v26h26h25h692q11 0 18 -7t7 -19v-819zM737 635q-7 8 -17.5 8t-18.5 -8l-133 -133l-138 133q-8 4 -20.5 4t-20.5 -4
q-4 -8 -4 -20.5t4 -20.5l113 -108h-92q-12 0 -19 -7t-7 -18.5t7 -18.5t19 -7h128v-102h-128q-12 0 -19 -7t-7 -18.5t7 -18.5t19 -7h128v-128q0 -12 7 -19t18.5 -7t18.5 7t7 19v128h128q11 0 18 7t7 18.5t-7 18.5t-18 7h-128v102h128q11 0 18 7t7 18.5t-7 18.5t-18 7h-92
l107 108q7 7 8.5 20.5t-3.5 20.5z" />
    <glyph glyph-name="xsdadd" unicode="&#xe68e;" 
d="M756 408h-220v220q0 11 -6.5 17.5t-17.5 6.5t-17.5 -6.5t-6.5 -17.5v-220h-220q-11 0 -17.5 -6.5t-6.5 -17.5t6.5 -17.5t17.5 -6.5h220v-220q0 -11 6.5 -17.5t17.5 -6.5t17.5 6.5t6.5 17.5v220h220q11 0 17.5 6.5t6.5 17.5t-6.5 17.5t-17.5 6.5zM512 847q-93 0 -179 -37
t-148 -99t-99 -148t-37 -179t37 -179t99 -148t148 -99t179 -37t179 37t148 99t99 148t37 179t-37 179t-99 148t-148 99t-179 37zM517 -30q-115 0 -211.5 55.5t-152 152t-55.5 211.5t55.5 211.5t152 152t211.5 55.5t211.5 -55.5t152 -152t55.5 -211.5t-56.5 -211.5t-153 -152
t-209.5 -55.5z" />
    <glyph glyph-name="xsdgeneralsituation" unicode="&#xe68f;" 
d="M469 384h43v171h-43v-171zM213 384h43v128h-43v-128zM341 384h43v213h-43v-213zM597 384h43v299h-43v-299zM896 853h-811q-16 0 -29 -13t-13 -29v-512q0 -16 13 -29.5t29 -13.5h384v-128h-85v-43h85h43h85v43h-85v128h384q16 0 29.5 13.5t13.5 29.5v512q0 16 -13.5 29
t-29.5 13zM896 320q0 -10 -6 -15.5t-15 -5.5h-363h-43h-362q-10 0 -16 5.5t-6 15.5v469q0 10 6 16t16 6h768q9 0 15 -6t6 -16v-469zM725 384h43v256h-43v-256z" />
    <glyph glyph-name="xsdhelp" unicode="&#xe690;" 
d="M512 896q-94 0 -172.5 -45.5t-123.5 -124t-45 -171.5q0 -94 46 -173.5t124 -124.5v-190q0 -69 51 -120t120 -51t120 51t51 120v190q78 45 124 124.5t46 173.5q0 93 -45 171.5t-123.5 124t-172.5 45.5zM512 -55q-36 0 -66.5 20t-45.5 53h224q-15 -33 -45.5 -53t-66.5 -20z
M634 67h-244v49h244v-49zM658 301v0q-11 0 -17.5 -6.5t-6.5 -17.5v-112h-244v112q0 11 -6.5 17.5t-17.5 6.5v0q-67 37 -107 105.5t-40 148.5q0 120 86 206t207 86t207 -86t86 -206q0 -80 -40 -148.5t-107 -105.5zM512 701q-62 0 -104 -42t-42 -104h48q0 40 29 68.5t69 28.5
t69 -28.5t29 -69t-29 -69t-69 -28.5q-11 0 -17.5 -6.5t-6.5 -17.5v-73h48v48q53 12 87.5 52.5t34.5 94.5q0 62 -42 104t-104 42zM512 311q-11 0 -17.5 -7t-6.5 -17.5t6.5 -17.5t17.5 -7t17.5 7t6.5 17.5t-6.5 17.5t-17.5 7z" />
    <glyph glyph-name="xsdmarketing" unicode="&#xe691;" 
d="M1024 657q0 98 -70.5 168.5t-168.5 70.5t-168.5 -70.5t-70.5 -168.5v-239h239q98 0 168.5 70.5t70.5 168.5zM0 111q0 -98 70.5 -168.5t168.5 -70.5t168.5 70.5t70.5 168.5v239h-239q-98 0 -168.5 -70.5t-70.5 -168.5zM239 896q-98 0 -168.5 -70.5t-70.5 -168.5
t70.5 -168.5t168.5 -70.5h239v239q0 98 -70.5 168.5t-168.5 70.5zM785 350h-239v-239q0 -98 70.5 -168.5t168.5 -70.5t168.5 70.5t70.5 168.5t-70.5 168.5t-168.5 70.5z" />
    <glyph glyph-name="xsdpermission" unicode="&#xe692;" horiz-adv-x="1026" 
d="M94 -15q-20 6 -21 26.5t6 49.5q3 28 42 67.5t70 60.5q11 8 21.5 11t19.5 3.5t31 2t46 4.5q72 10 116 98q1 3 2 4q7 20 5 54.5t-10 37.5q-3 3 -18.5 31t-17.5 31l-16 41q-13 14 -19.5 27.5t-7 22t1.5 15t5 9.5t5 3q5 0 5 51q0 6 -0.5 23t0 25.5t3 28.5t7.5 46
q2 18 14.5 34t29.5 25.5t34 16t29 8.5l11 3h26v0h25q5 -1 12.5 -3t27.5 -9t36 -16t30 -25t17 -34q6 -24 8.5 -42.5t2.5 -27t-0.5 -25t-0.5 -23.5q0 -51 6 -56q4 0 9 -8t0.5 -27t-25.5 -42q-15 -31 -15 -36q-7 -14 -20.5 -36t-20.5 -25q-4 -5 -6.5 -34t1.5 -48v10h77h-11
q-5 10 -5 41l5 15q12 14 27 41t25 47l10 20q16 20 22 39t4 31.5t-6.5 22.5t-9.5 15l-5 4q0 4 2.5 55.5t2.5 62.5q-1 3 -3 14.5t-4.5 20.5t-8 22.5t-16 29t-24.5 31.5q-21 20 -54 31.5t-56 13.5l-23 1h-36h-36q-4 0 -10 -0.5t-24 -3.5t-34 -8t-36 -17t-34 -27
q-52 -63 -52 -118q-3 -16 -0.5 -63t6.5 -55q-2 -2 -5.5 -5t-9 -14t-7 -23t4.5 -31t22 -39q31 -77 61 -108q5 -10 5 -15q0 -41 -5 -46q-8 -16 -29 -37.5t-48 -24.5q-22 -3 -42.5 -0.5t-43.5 1t-37 -10.5q-35 -24 -85 -74.5t-63 -94.5q-8 -27 -10.5 -51.5t1 -47t17.5 -38.5
t38 -22h446h15h97v51h-102q-389 0 -420 11zM975 179v0v26q0 54 -37.5 91t-91 37t-90.5 -37t-37 -91q0 -16 5 -26h-5q-20 0 -36 -16t-16 -35v-205q0 -19 16 -35t36 -16h256q19 0 35 16t16 35v205q0 19 -16 35t-35 16zM846.5 282q30.5 0 53.5 -23t23 -54q0 -16 -5 -26h-143
q-5 10 -5 26q0 31 23 54t53.5 23zM975 -51q0 -12 -7.5 -19t-18.5 -7h-205q-11 0 -18 7t-7 19v153q0 12 7 19t18 7h205q11 0 18.5 -7t7.5 -19v-153zM846.5 77q-11.5 0 -18.5 -7t-7 -19v-51q0 -12 7 -19t18.5 -7t18.5 7t7 19v51q0 12 -7 19t-18.5 7z" />
    <glyph glyph-name="xsdtenancymatters" unicode="&#xe694;" 
d="M256 128h512v51h-512v-51zM512 640h-256v-51h256v51zM256 435h512v51h-512v-51zM256 282h512v51h-512v-51zM870 845h-716q-20 0 -36 -16t-16 -35v-820q0 -19 16 -35t36 -16h716q20 0 36 16t16 35v820q0 19 -16 35t-36 16zM870 0q0 -12 -7 -19t-18 -7h-666q-11 0 -18 7
t-7 19v768q0 12 7 19t18 7h666q11 0 18 -7t7 -19v-768z" />
    <glyph glyph-name="xsdservice" unicode="&#xe695;" 
d="M507 724q-76 77 -188 77t-188.5 -77t-76.5 -188.5t76 -188.5l28 -28l-4 -5q-24 -25 -23 -57.5t23 -54.5q23 -23 55 -23q0 -32 23.5 -55.5t56.5 -23.5q0 -33 23 -56t56 -23q0 -33 18 -51q22 -22 54.5 -23t57.5 23l5 4l9 -9q22 -22 54 -23t58 23q23 23 23 56q33 0 51 19
q23 23 23 55q33 0 56.5 23.5t23.5 56.5q32 0 55 23q22 22 23 54t-23 58l-4 4l32 33q77 77 77 188.5t-76.5 188.5t-188.5 77t-189 -77zM586 49l5 -5q11 -10 11 -23t-10.5 -23.5t-23.5 -10.5t-23 11l-5 4l37 38q2 1 3.5 3.5t2.5 4t3 1.5v0zM545 72l-75 -74q-10 -11 -23 -11
t-23.5 10.5t-10.5 23.5t11 23l74 75q11 10 23.5 10t23.5 -10q10 -7 10 -21.5t-10 -25.5zM470 151l-74 -74q-11 -11 -23.5 -11t-23 10.5t-10.5 23.5t10 23l75 75q10 10 23 10t23 -10q10 -11 9 -25t-9 -22zM391 230l-79 -79q-11 -10 -23.5 -10t-23 10.5t-10.5 23t10 23.5
l75 74q10 11 23 11t23 -11q13 -6 13 -19.5t-8 -22.5zM312 310l-79 -80q-11 -10 -23.5 -10t-23 10.5t-10.5 23t10 23.5l75 74q10 11 23 11t23 -11q13 -6 13 -19.5t-8 -21.5zM819 286l5 -4q10 -11 10 -23.5t-10.5 -23t-23 -10.5t-23.5 10l-4 5l-107 107q-7 7 -16.5 7t-16.5 -7
t-7 -16.5t7 -16.5l107 -107l5 -5q10 -10 10 -23t-10.5 -23.5t-23 -10.5t-23.5 11l-4 5l-108 107q-7 7 -16 7t-16 -7t-7 -16.5t7 -16.5l107 -107l5 -5q10 -10 10 -23t-10.5 -23.5t-23 -10.5t-23.5 11l-5 4l-18 19q0 33 -23.5 56t-55.5 23q0 33 -23.5 56t-55.5 23
q0 33 -23.5 56t-56.5 23v0q0 33 -23 56q-20 22 -51.5 21t-55.5 -25l-37 -38l-28 28q-66 64 -64 154.5t69 157.5q66 67 158 67t158 -67l-33 -32v0l-93 -93q-27 -29 -26 -65t26 -61q29 -27 65 -26t61 26l93 93v0zM852 379l-33 -32l-4 4l-229 228q-7 7 -16 7t-16 -7l-19 -18
l-93 -93q-32 -24 -65 9q-11 11 -12 30t12 31l98 97l60 61q64 63 157 64t160 -64q65 -67 64 -158t-64 -159z" />
    <glyph glyph-name="xsdreport" unicode="&#xe696;" 
d="M229 44h337v57h-337v-57zM229 215h562v58h-562v-58zM903 896h-784q-24 0 -41 -16.5t-17 -40.5v-910q0 -23 16.5 -40t41.5 -17h786q24 0 41 16.5t17 40.5v910q-2 24 -18.5 40.5t-41.5 16.5zM903 -11q0 -24 -16.5 -41t-40.5 -17h-674q-24 0 -41 16.5t-17 41.5v793
q0 23 17 40t41 17h674q24 0 40.5 -16.5t16.5 -40.5v-793zM764 726v0q-9 3 -18 0h-96q-12 0 -20.5 -8t-8.5 -20q0 -11 8.5 -20t20.5 -9h43l-180 -217l-49 86q-6 11 -17 14t-22 -3q-1 -2 -2 -3q-7 -3 -10 -10l-53 -94h-100q-13 0 -21 -8t-8 -20q0 -11 8.5 -20t20.5 -9h112h8
q12 0 23 14l38 70l41 -72q5 -9 14.5 -12t18.5 0q14 -3 27 10l194 235v-47q0 -12 8 -20t20 -8t20.5 8t8.5 20v115q0 8 -8 20q-12 8 -21 8z" />
    <glyph glyph-name="fenbushishujuyuandds" unicode="&#xe697;" 
d="M697 733l-159 92q-25 14 -50 0l-159 -92q-25 -14 -25 -43v-184q0 -29 25 -43l159 -92q25 -14 50 0l159 92q25 14 25 43v184q0 29 -25 43zM661 513l-148 -86l-148 86v170l148 86l148 -86v-170zM458 305l-159 92q-25 15 -50 0l-159 -92q-25 -14 -25 -43v-184q0 -29 25 -43
l159 -92q25 -14 50 0l159 92q25 15 25 43v184q0 29 -25 43zM422 85l-148 -86l-148 86v171l148 85l148 -85v-171zM937 305l-159 92q-25 15 -50 0l-159 -92q-25 -14 -25 -43v-184q0 -29 25 -43l159 -92q25 -14 49 0l160 92q25 15 25 43v184q0 29 -25 43zM901 85l-148 -86
l-148 86v171l148 85l148 -85v-171z" />
    <glyph glyph-name="jizhongguanli" unicode="&#xe698;" 
d="M704 -64h-384v896h384v-896zM640 768h-256v-768h256v768zM256 704v64h-256v-64v-640v-64h256v64h-192v640h192zM960 704v-640h-192v-64h256v64v640v64h-256v-64h192zM576 640h-128v-64h128v64zM576 448h-128v-64h128v64zM576 256h-128v-64h128v64z" />
    <glyph glyph-name="pingguo" unicode="&#xe699;" 
d="M837 220q42 -59 96 -77q-24 -72 -75 -151q-79 -119 -156 -119q-28 0 -85 19q-52 20 -91 20t-86 -21q-49 -19 -81 -19q-92 0 -181 157q-89 154 -89 304q0 138 68 226q69 88 172 88q22 0 50 -5.5t57 -20.5q32 -18 52.5 -24.5t31.5 -6.5q14 0 41.5 6t54.5 22q30 17 51.5 25
t44.5 8q71 0 129 -39q30 -20 62 -60q-47 -41 -68 -72q-40 -57 -40 -125q0 -74 42 -135zM631 698q-36 -33 -66 -44q-10 -3 -26 -5.5t-36 -4.5q1 90 47 155.5t151 90.5q2 -10 4 -14v-12q0 -37 -18 -83q-18 -45 -56 -83z" />
    <glyph glyph-name="raxiconjinrong" unicode="&#xe69a;" 
d="M396 170q-14 0 -23 -9.5t-9 -23t9 -22.5t23 -9h84v-31q0 -13 9.5 -22.5t22.5 -9.5t22.5 9.5t9.5 22.5v31h15q42 0 71.5 29.5t29.5 71t-29.5 71t-71.5 29.5h-15v74h73q13 0 22.5 9.5t9.5 22.5t-9.5 22.5t-22.5 9.5h-73v30q0 14 -9.5 23t-22.5 9t-22.5 -9t-9.5 -23v-30h-15
q-42 0 -71.5 -29.5t-29.5 -71t29.5 -71.5t71.5 -30h15v-73h-84zM480 381v-74h-15q-16 0 -26.5 11t-10.5 26t10.5 26t26.5 11h15v0zM544 170v74q4 -1 15 -1q16 0 26.5 -10.5t10.5 -26t-10.5 -26t-26.5 -10.5h-15v0zM575 829l8 -7q12 -11 26 -19q6 -3 13 -5q-4 -6 -11 -14
q-6 -9 -13 -20q-5 -7 -10 -15h-161q-6 10 -13 21q-7 8 -13 19l-6 8q24 9 41 26q1 2 4 4q4 -3 6 -5q7 -5 14 -9q9 -7 20 -12q13 -7 28 -7q22 0 41 13q12 8 26 22v0zM571 896q-7 0 -12 -2q-14 -6 -27 -18q-11 -11 -18 -16q-3 -2 -6 -2q-7 3 -12 8q-5 3 -11 7q-5 4 -9 10
q-9 9 -27 11q-4 1 -9 1q-13 0 -24 -7q-19 -12 -27 -20.5t-23 -11.5q-4 -1 -8 -1q-6 0 -12 2l-22 6q-11 4 -21 5h-4q-8 0 -14 -5q-16 -12 -10.5 -29.5t20.5 -27.5q13 -9 27 -23q14 -13 26 -30q5 -9 13 -20t15 -22q8 -13 15 -26h233q8 11 15 23q6 11 12 21l12 18q11 15 23 29
q11 14 32 28q9 6 15.5 15t8 18t-2.5 17t-15 13q-8 2 -13 2h-4q-8 -1 -15 -4q-6 -2 -15 -6q-8 -3 -19.5 -3t-18.5 4t-13 9q-2 2 -13 12q-7 6 -18 9q-14 6 -24 6v0zM605 569q7 -8 16 -18q19 -21 45 -46q27 -27 60 -54q24 -21 50 -50q23 -26 40 -61q17 -34 24 -79.5t-2 -102.5
q-8 -45 -32 -85q-24 -39 -63 -69q-41 -31 -99 -49q-58 -19 -134 -19q-78 0 -136 21.5t-97 54.5t-61 73q-23 40 -30 80q-8 44 -3 84q6 43 22 79q16 37 40 68q25 32 54 58q30 26 55 51q27 26 42 45q8 8 17 19h192zM635 633h-253q-14 -19 -33 -40q-16 -20 -40 -43t-52 -48
q-34 -30 -63 -67t-48 -81t-26 -95t3 -106q9 -50 37 -99.5t75.5 -90t116.5 -66t158 -25.5q86 0 154 22t118 59q49 37 79 87t40 106q11 69 2.5 124.5t-30 98.5t-49.5 75q-29 32 -56 55q-33 28 -57.5 51.5t-41.5 43.5q-20 21 -34 39v0z" />
    <glyph glyph-name="anzhuo" unicode="&#xe69b;" 
d="M839.5 551q-22.5 0 -38.5 -16t-16 -39v-216q0 -23 16 -39.5t38.5 -16.5t38.5 16.5t16 39.5v216q0 23 -16 39t-38.5 16zM182.5 551q-22.5 0 -38.5 -16t-16 -39v-216q0 -23 16 -39.5t38.5 -16.5t38.5 16.5t16 39.5v216q0 23 -16 39t-38.5 16zM270 550v-395
q0 -18 12.5 -30.5t29.5 -12.5h49v-120q0 -23 16 -39.5t38.5 -16.5t38.5 16.5t16 39.5v120h84v-120q0 -23 16 -39.5t39 -16.5t38.5 16.5t15.5 39.5v120h49q18 0 30 12.5t12 30.5v395h-484zM626 754l45 65q5 7 -1.5 11.5t-11.5 -2.5l-46 -68q-48 19 -101 19t-101 -19l-46 68
q-5 7 -11 2.5t-2 -11.5l45 -65q-54 -25 -88.5 -70t-38.5 -99h484q-4 54 -38.5 99t-88.5 70zM409 652q-11 0 -19 8t-8 19t8 18.5t19 7.5t19 -7.5t8 -18.5t-8 -19t-19 -8zM617 652q-11 0 -19 8t-8 19t8 18.5t19 7.5t18.5 -7.5t7.5 -18.5t-7.5 -19t-18.5 -8z" />
    <glyph glyph-name="fuwu" unicode="&#xe69c;" 
d="M275 813q-83 0 -142 -59t-59 -142t59 -142t142 -59h201v201q0 83 -59 142t-142 59v0zM414 473h-139q-57 0 -98 41t-41 98.5t41 98t98.5 40.5t98 -40.5t40.5 -98.5v-139v0zM940 612q0 83 -59 142t-142 59t-142 -59t-59 -142v-201h201q83 0 142 59t59 142v0zM600 612
q0 58 40.5 98.5t98 40.5t98.5 -40.5t41 -98t-41 -98.5t-98 -41h-139v139v0zM74 149q0 -84 59 -142.5t142 -58.5t142 58.5t59 142.5v200h-201q-83 0 -142 -58.5t-59 -141.5v0zM414 149q0 -58 -40.5 -99t-98 -41t-98.5 41t-41 98.5t41 98.5t98 41h139v-139v0zM739 349h-201
v-200q0 -84 59 -142.5t142 -58.5t142 58.5t59 142t-59 142t-142 58.5v0zM739 9q-58 0 -98.5 41t-40.5 99v139h139q57 0 98 -41t41 -98.5t-41 -98.5t-98 -41v0zM739 9z" />
    <glyph glyph-name="gengduo" unicode="&#xe69d;" 
d="M946 435h-383v383q0 21 -15 36t-36 15t-36 -15t-15 -36v-383h-383q-21 0 -36 -15t-15 -36t15 -36t36 -15h383v-383q0 -21 15 -36t36 -15t36 15t15 36v383h383q21 0 36 15t15 36t-15 36t-36 15z" />
    <glyph glyph-name="jiantou1" unicode="&#xe69e;" 
d="M576 346q16 16 16 39t-16 39l-383 394q-16 16 -38.5 16t-38 -16t-15.5 -39t16 -39l345 -355l-345 -354q-16 -16 -16 -39t15.5 -39t38 -16t38.5 16zM449 740l345 -355l-345 -354q-16 -16 -16 -39t16 -39t38 -16t38 16l383 393q16 16 16 39t-16 39l-383 394q-16 16 -38 16
t-38 -16t-16 -39t16 -39z" />
    <glyph glyph-name="erweima" unicode="&#xe69f;" 
d="M148 22h276v0h-276v0zM217 229h138v-138h-138v138zM562 366h69v-275h-69v275zM80 -47h413v413h-413v-413zM148 22v275h276v-275v0h-276v0zM562 22h138v-69h-138v69zM906 229h69v-69h-69v69zM769 366h206v-69h-206v69zM700 711h138v-138h-138v138zM975 849h-413v-414h413
v414zM906 504h-275v276h275v-276zM80 435h413v414h-413v-414zM148 780h276v-276h-276v276zM906 22h-137v-69h206v138h-69v-69zM700 229v-138h138v69h-69v69h-69zM217 711h138v-138h-138v138z" />
    <glyph glyph-name="baobiao" unicode="&#xe6a0;" 
d="M866 896h-708q-33 0 -56 -23t-23 -56v-866q0 -33 23 -56t56 -23h708q33 0 56 23t23 56v866q0 33 -23 56t-56 23zM866 -49h-708v866h708v-866zM709 463h79v-79h-79v79zM630 384h-394v79h394v-79zM473 226h-237v79h237v-79zM551 69h-315v79h315v-79zM709 305h79v-79h-79v79
zM709 148h79v-79h-79v79zM236 620v40q0 16 11.5 27.5t28.5 11.5h472q16 0 27.5 -11.5t11.5 -27.5v-40q0 -16 -11.5 -27.5t-27.5 -11.5h-472q-17 0 -28.5 11.5t-11.5 27.5z" />
    <glyph glyph-name="jiantoushang" unicode="&#xe6a1;" 
d="M877 493l-320 320q-18 19 -45 19t-45 -19l-320 -320q-19 -18 -19 -45t18.5 -45.5t45.5 -18.5t45 19l211 210v-613q0 -26 19 -45t45 -19t45 19t19 45v613l211 -210q18 -19 45 -19t45.5 18.5t18.5 45.5t-19 45z" />
    <glyph glyph-name="jiantoushang1" unicode="&#xe6a2;" 
d="M124 229l336 -335q28 -28 66 -19v0v0q7 2 11 3q1 1 1.5 1h1.5q15 6 25 17l335 333q20 21 20 50t-20.5 49.5t-49.5 20.5t-50 -21l-220 -220v715q0 28 -20 48t-48 20t-48 -20t-20 -48v-714l-220 219q-21 21 -50 21t-49.5 -21t-20.5 -50t20 -49z" />
    <glyph glyph-name="fanhui1" unicode="&#xe6a3;" 
d="M130 557l313 -312v189q22 0 36.5 -0.5t43 -3t49.5 -7t49.5 -13.5t48.5 -21.5t42 -32.5t35.5 -45t22.5 -60t9 -77q0 -100 -61 -176.5t-154 -96.5q149 21 249 138t100 275q0 63 -14.5 117t-37 92t-56.5 68.5t-66.5 49.5t-73.5 33t-71.5 21t-66 10.5t-51.5 4t-33 0.5v161z
" />
    <glyph glyph-name="fanhui" unicode="&#xe6a4;" 
d="M942 157q-16 0 -20 16q-1 7 -5 19.5t-22 44.5t-44 59q-111 117 -326 122v-166q0 -13 -11.5 -18.5t-21.5 1.5l-392 285q-8 6 -8 16.5t8 16.5l392 286q10 7 21.5 1.5t11.5 -18.5v-177q60 -2 120 -18q123 -32 201 -112q120 -122 117 -338q0 -8 -5.5 -13.5t-13.5 -6.5h-2z
M504 459q137 0 239 -42q83 -35 140 -95q17 -18 32 -39q-21 125 -98 203q-38 39 -88 65.5t-97 36.5t-74 13.5t-48 3.5h-5v0q-9 -1 -15 5t-6 15v157l-337 -246l337 -244v147q0 8 6 14t14 6z" />
    <glyph glyph-name="yinxingqia" unicode="&#xe6a5;" 
d="M971 752h-918q-22 0 -37.5 -15.5t-15.5 -37.5v-139h1024v139q0 22 -15.5 37.5t-37.5 15.5zM845 247q-9 0 -11 1v-2l-3 -11q-6 -25 -6 -26h10l0.5 2t0.5 4v2l2 5v1h1q11 0 16 3.5t6 9.5q1 2 1 4t-2 4q-2 3 -12 3h-3zM851 235q-1 -4 -4 -5q-2 -1 -6 -1h-2v0l3 12v0v1h1
l6 -1q3 -1 2 -6zM856 168h-2l8 26h2l1 2v-3q0 -3 5 -3h5l1 5h-2q-1 0 -1 1v3h-8v0q-10 0 -12 -1l-4 -2l1 3h-8l-1 -5l-8 -27h-2l-1 -5h15l-1 -1h8v1h2zM846 168h-6l2 5h6zM850 179q-2 0 -3 -1l-4 -1l2 7h6zM850 188l-4 -1l2 7h6l-1 -5q-2 0 -3 -1zM822 176q0 -1 -0.5 -1
h-1.5h-2l1 2h-7l-1 -14q0 -1 1 -1.5t6 -0.5h5l1 5h-4h-1h-0.5t-0.5 1v4h4q2 0 4 1q1 1 1 3l1 3h-5zM856 219q-2 -8 3 -10q3 -1 5 -1t4 2v-1v-1h9v1q1 6 3 13q1 4 2 9v0q-4 0 -9 -1h-1v-1q-1 1 -3 2q-3 1 -9 -3q-3 -3 -4 -9zM864 219q2 7 5 7q2 0 2 -4v-2q-1 -2 -1 -3l-1 -2
q-1 -2 -3 -2t-2 2v4zM775 220q-2 -9 4 -11q2 -1 5 -1q6 0 10 4q3 3 4 8q1 6 -1 8.5t-8 2.5t-10 -3q-3 -3 -4 -8zM784 219q1 7 4 7t1 -6q-1 -3 -2 -5t-2 -2q-2 0 -2 3q0 1 1 3zM780 183h4l-1 -5h-4l-2 -5h5l-3 -9v-2q1 -1 2 -1h2h10l1 5h-4q-3 0 -3 1l2 6h9l1 5h-8l1 5h8l2 4
h-21zM797 199h-9l-2 -4l-1.5 -1.5t-1.5 -0.5h-1l-2 -5h4q2 0 4 1l0.5 0.5l0.5 0.5l1 1h12l2 5h-9zM773 227q-4 -1 -5 -1h-2h-2v-1h-1v-4q-1 -2 -1 -6q-1 -2 -1 -3q-1 -2 -1 -3v0v0h4h5v0v0v2t0.5 1t1.5 5q0 1 0.5 3l0.5 2q1 4 1 5v0v0zM713 209q7 0 11 2q5 3 8 12v2
q5 20 6 22v0h-9l-1.5 -5.5t-2.5 -10.5l-1 -5q-2 -7 -4 -9t-5 -2q-4 0 -5 4v1l1 6q5 19 6 21v0h-11v-1l-5 -21v-2l-1 -6q0 -2 1 -4q2 -4 12 -4zM772.5 233q-3.5 2 -7 -0.5t-0.5 -4.5t7 0.5t0.5 4.5zM734 209v0h9v0q1 4 1 7l2 8q2 1 3 1v0l-19 -81q-1 -7 2.5 -12t10.5 -5h3
q-7 0 -10.5 5t-1.5 12l15 65h6h1q1 4 2 9v3q2 6 1 8q-1 3 -5 3v0l10 40q3 14 17 16v0h-3v0q-15 -2 -18 -16l-9 -41q-1 0 -2 -1l-2 -1l1 2l-1 1q-3 -1 -8 -2h-1q0 -6 -2 -13zM861 184h9l-2 -4h-8l-2 -5h8l-6 -8q0 -1 -1 -1h-2h-2l-1 -5h5q4 0 6 3l4 5l1 -5q0 -2 2 -2
q1 -1 2 -1h2h2l2 5h-1q-2 0 -2 0.5v1.5l-1 5h-4l2 2h9l1 5h-8l1 4h8l2 5h-25zM0 69q0 -22 15.5 -37.5t37.5 -15.5h918q22 0 37.5 15.5t15.5 37.5v395h-1024v-395zM671 144l30 128q2 7 7.5 11.5t12.5 4.5h61h2h74h2h56q6 0 10 -4.5t2 -11.5l-30 -128q-3 -14 -17 -17h-1h-64
q-7 0 -10.5 5t-1.5 12l4 17h1l2 5h-2l3 13h8h3t3 1q1 0 2 1q1 2 2 5l4 13h-12q-3 -1 -5 -1l-1 -1l3 12h1v0q1 4 2 9v3q2 6 1 8l10 43q4 14 18 16h-3v0q-14 -2 -17 -16l-10 -41q-1 1 -2 1q-3 0 -6 -2l-2 -1l1 2v1q-4 -1 -9 -2v0q-1 -6 -3 -13q-1 -7 -2 -8h1h8v0q1 6 2 7l1 8
q2 1 3 1q2 0 1 -2q0 -2 -1 -8l-1 -2v-1.5t-1 -2.5h1h4l-2 -10h-7l-10 -33q0 -2 -0.5 -3t1.5 -2h2h4h1l-4 -17q-2 -7 1.5 -12t10.5 -5h-63h-2h-64q-7 0 -10.5 5t-2.5 12zM805 168l4 11v0l-3 -13q-1 0 -1 0.5v1.5zM810 183v1v-1v0zM822 186v-3h-1h-1h-7v3h9zM814 190l1 3h10
l-1 -2h-7q-1 -1 -3 -1zM288 368q0 7 4.5 11.5t11.5 4.5h31q7 0 12 -4.5t5 -11.5v-48q0 -6 -5 -11t-12 -5h-31q-7 0 -11.5 5t-4.5 11v48zM176 368q0 7 5 11.5t12 4.5h31q7 0 11.5 -4.5t4.5 -11.5v-48q0 -6 -4.5 -11t-11.5 -5h-31q-7 0 -12 5t-5 11v48zM64 368q0 7 5 11.5
t11 4.5h32q6 0 11 -4.5t5 -11.5v-48q0 -6 -5 -11t-11 -5h-32q-6 0 -11 5t-5 11v48zM880 196q0 -1 -0.5 -1h-0.5h-1l-2 -5h5q4 0 6 3l22 38l-1 1l-8 -2v0v0v0l-3 -6l-2 -4v0v1l-1 10v1q-6 -2 -8 -2h-1v0v-1q1 -2 1 -5q0 -1 0.5 -3t0.5 -3q1 -6 1 -10q-1 -1 -2.5 -4t-3.5 -5z
" />
    <glyph glyph-name="xsdyewu" unicode="&#xe6aa;" 
d="M942 697h-220v77q0 34 -24.5 58t-58.5 24h-254q-35 0 -59 -24t-24 -58v-77h-220q-33 0 -57.5 -24t-24.5 -58v-620q0 -34 24.5 -58.5t57.5 -24.5h859q34 0 58 24.5t24 58.5v620q1 34 -23.5 58t-57.5 24zM356 774q0 12 8.5 20.5t20.5 8.5h255q12 0 20.5 -8.5t8.5 -20.5v-77
h-313v77zM353 266q11 0 19 8t8 19v40h264v-40q0 -11 8 -19t19.5 -8t19 8t7.5 19v40h272v-339q0 -12 -8 -20.5t-20 -8.5h-860q-11 0 -19.5 8.5t-8.5 20.5v339h272v-40q0 -11 8 -19t19 -8zM671 447v0q-11 0 -19 -8t-8 -19v0v-33h-264v33q0 11 -8 19t-19.5 8t-19 -8t-7.5 -19
v-33h-272v228q0 12 8.5 20.5t20.5 8.5h859q11 0 19.5 -8.5t8.5 -20.5v-228h-272v33q0 11 -8 19t-19 8z" />
    <glyph glyph-name="xsdzhineng" unicode="&#xe6ab;" 
d="M850 383q59 76 84 170q-7 -31 -8 -31t-3 12q-7 47 -22 73q-23 40 -74.5 58t-124.5 12l-20 -2q-33 76 -85 135q2 -1 5 -4l5 -4l-3 1q-50 28 -91 28q-47 0 -88.5 -35.5t-72.5 -101.5q-33 -70 -43 -151q5 39 6 65.5t-0.5 40.5t-7 21t-10 8t-12.5 1q-46 5 -92 -14.5
t-68 -57.5q-24 -41 -14 -94.5t52 -113.5q56 -80 137 -132q-47 19 -82.5 25.5t-56.5 3t-36 -18t-21.5 -28.5t-11.5 -37q6 31 8 31q1 0 3 -12q7 -47 22 -73q41 -72 163 -72q17 0 35 2q32 3 62 9q-13 -40 0 -73.5t44 -68.5l-6 4l-5 5l3 -2q51 -28 92 -28q46 0 87.5 35.5
t72.5 101.5q34 70 43 151q-8 -39 -12.5 -65t-6.5 -39.5t-1 -20.5t2 -8t4 -1q18 -2 35 -2q122 0 164 72q23 41 13 94.5t-51 113.5q-57 80 -138 132zM705 637q60 5 102 -8t59 -42.5t7.5 -72.5t-43.5 -92q-49 -69 -118 -114q24 40 37 71t15.5 49.5t-4 34.5t-13.5 24t-21 19
q-10 70 -30 130q20 3 44 3zM603.5 225.5q-44.5 -25.5 -90.5 -45.5q-46 20 -91 45.5t-85 55.5q-6 50 -6 101.5t6 101.5q40 30 85 55.5t91 45.5q46 -20 90.5 -45.5t84.5 -55.5q6 -50 6 -101.5t-6 -101.5q-40 -30 -84.5 -55.5zM680 226q-9 -49 -24 -91q-44 8 -92 25
q160 78 278 205q-54 -55 -50 -53q7 3 62 66q24 28 44 54zM461 160q-47 -17 -91 -25q-15 42 -25 91q151 -103 334 -141q-101 28 -97 24q6 -6 97 -24q23 -5 44 -8zM294 316q-38 32 -68 67q30 34 68 66q-3 -31 -3 -66v0q0 -34 3 -67zM345 539q10 49 25 91q44 -8 91 -25
q-160 -78 -277 -205q54 55 50 53q-9 -4 -64 -68q-23 -27 -43 -52zM564 605q48 17 92 25q15 -42 24 -91q-151 103 -333 141q100 -28 97 -24q-6 6 -98 24q-23 5 -44 8zM732 449q38 -32 67 -66q-29 -35 -67 -67q2 31 2 66v1q0 33 -2 66zM388 677q26 54 58.5 84t66 30t66 -30
t58.5 -84q30 -62 39 -134q-22 34 -42.5 55t-35 30.5t-31.5 11t-27.5 -1.5t-26.5 -9q-66 27 -128 39q30 67 77 119zM196 422q-35 49 -44.5 92t7.5 73q30 52 130 52q15 0 31 -2q4 0 9 -1q-20 -60 -29 -130q-57 -44 -99 -92q-49 67 -70 149zM320 128q-60 -5 -102 8t-59 42.5
t-7.5 72.5t44.5 92q49 70 119 116q-25 -41 -38 -72t-16 -50t3.5 -35t13.5 -24t22 -19q9 -70 29 -130q-5 -1 -9 -1zM637 88q-26 -54 -58.5 -84t-66 -30t-66 30t-58.5 84q-29 61 -37 132q21 -33 41.5 -54t35 -30.5t31.5 -10.5t27 2t27 9q66 -27 128 -39q-30 -66 -77 -118z
M866 178q-17 -29 -59 -42t-102 -8q-4 0 -9 1q20 60 30 130q56 44 98 92q50 -68 71 -151q-9 37 -11 37q-2 1 -3 -11q-6 -31 -15 -48z" />
    <glyph glyph-name="fenqile" unicode="&#xe6ac;" 
d="M645 447h120v-108h-120v108zM416 607h-117v-316h117v82l83 15l-83 15v204zM464 388l-134 -19l6 38l21 154l22 -161zM645 640h120v-108h-120v108zM922 896h-820q-42 0 -72 -30t-30 -72v-820q0 -42 30 -72t72 -30h820q42 0 72 30t30 72v820q0 42 -30 72t-72 30zM232 47h-55
l49 135h88zM482 47l-82 135h88l48 -135h-54zM536 607h-37v-316h37v-85h-359v85h39v316h-39v85h39v33h83v-33h117v33h83v-33h37v-85zM848 47h-101l-39 85h57v122h-120v-72l-44 -135h-54l15 135v543h286v-678v0z" />
    <glyph glyph-name="xsd-backup" unicode="&#xe6ad;" 
d="M566 884q-17 11 -52 11q-28 0 -52 -13l-409 -198q-49 -27 -49 -77q0 -48 46 -77l413 -200q20 -13 51 -13q28 0 53 13l409 200q49 27 49 78q-1 21 -14.5 43t-32.5 32l-31 -54q15 -8 16 -23q0 -12 -16 -21l-409 -199q-11 -7 -24 -7t-21 5l-413 201q-14 9 -14 22q0 14 16 22
l408 197q12 7 24 7q17 0 22 -3l413 -202l27 56zM489 180l13 -6l14 6l478 229q8 4 13 12t5 16q0 13 -9.5 22t-21.5 9q-7 0 -13 -2l-479 -229h27l-470 226q-6 2 -13 2q-13 0 -22 -9t-9 -22q0 -8 5 -16t12 -12l470 -226v0zM489 38l13 -7l14 7l478 229q8 3 13.5 11.5t5.5 16.5
q0 13 -9.5 22t-21.5 9q-8 0 -14 -3l-479 -229h27l-470 226q-6 3 -13 3q-13 0 -22 -9t-9 -22q0 -8 5 -16t12 -12l470 -226v0zM489 -104l13 -7l14 7l478 229q8 3 13 11t5 16q0 13 -9.5 22.5t-21.5 9.5q-7 0 -13 -3l-479 -229h27l-470 226q-7 3 -15 3q-13 0 -22 -9t-9 -22
q0 -8 5.5 -16.5t13.5 -11.5l470 -226v0z" />
    <glyph glyph-name="xsd-documen" unicode="&#xe6ae;" 
d="M954 64v768q0 27 -18.5 45.5t-45.5 18.5h-768q-26 0 -45 -18.5t-19 -45.5v-864q0 -40 28.5 -68t67.5 -28h784q7 0 12 5t5 11.5t-5 11.5t-12 5h-16v128h1q13 0 22 9t9 22v0zM105 817q0 14 9.5 23t22.5 9h49v-770h-32q-20 0 -28 -2t-21 -11v751v0v0zM875 -81h-721
q-53 0 -53 56.5t53 56.5h721v-113v0zM233 79v770h643q13 0 22 -9.5t9 -22.5v-738h-674v0zM658 488h-304q-7 0 -11.5 -5t-4.5 -12.5t4.5 -13t11.5 -5.5h304q6 0 11 5.5t5 13t-5 12.5t-11 5zM770 584h-416q-7 0 -11.5 -5t-4.5 -12.5t4.5 -13t11.5 -5.5h416q7 0 11.5 5.5
t4.5 13t-4.5 12.5t-11.5 5zM354 645h192q7 0 11.5 5t4.5 12.5t-4.5 12.5t-11.5 5h-192q-7 0 -11.5 -5t-4.5 -12.5t4.5 -12.5t11.5 -5z" />
    <glyph glyph-name="xsd-exit" unicode="&#xe6af;" 
d="M512 418q-14 0 -24 10t-10 24v0v410q1 13 11 22.5t23 9.5t23 -9.5t11 -22.5v-410v0q0 -14 -10 -24t-24 -10zM682 815q0 -21 20 -31q129 -61 199.5 -188.5t48.5 -276.5q-21 -148 -130 -253.5t-257 -122.5q-98 -11 -189.5 20t-158 91t-106.5 147t-40 183q0 130 69.5 238
t183.5 162q8 4 14 13t6 18q0 14 -10 24t-24 10q-8 0 -15 -3q-133 -63 -213.5 -189t-78.5 -279q1 -98 40 -189.5t104 -159t154.5 -110t187.5 -46.5q108 -5 207.5 33.5t171.5 107.5t114.5 166t42.5 204q0 151 -80.5 275.5t-211.5 186.5q-17 8 -33 -2t-16 -29v0z" />
    <glyph glyph-name="xsd-have" unicode="&#xe6b0;" horiz-adv-x="1204" 
d="M119 436l282 -233l701 670q2 2 5.5 4.5t14 8.5t20.5 8.5t23.5 0t25.5 -11.5q7 -6 11 -16.5t1 -29.5t-18 -41l-732 -889q-2 -3 -6.5 -8t-17.5 -14.5t-27 -12t-33.5 5.5t-38.5 30l-316 442q-1 3 -3.5 7t-6.5 16.5t-4.5 23.5t5 25t18.5 24q47 35 96 -10z" />
    <glyph glyph-name="xsd-account" unicode="&#xe6b1;" 
d="M207 71q95 38 192 68q12 4 19.5 10.5t10.5 16.5t3.5 16.5t0.5 18.5q0 45 -12 71q-16 33 -18 67q-1 8 -7 13q-15 13 -25 59q-5 29 -1 41q2 5 3 9q3 15 1 47t-7 59q-3 14 3 39t23 47q35 45 103 49h38q69 -4 104 -49q18 -22 23.5 -47t3.5 -39q-5 -27 -7.5 -58.5t1.5 -47.5
q0 -4 2 -9q5 -12 -1 -41q-9 -46 -24 -59q-6 -5 -7 -13q-3 -34 -18 -67q-19 -40 -19 -70q0 -12 0.5 -18.5t3.5 -16.5t10.5 -17t19.5 -10q102 -31 193 -66q-52 -53 -142 -90t-165 -37v0v0q-74 0 -163.5 36.5t-141.5 87.5v0v0zM512 821q89 0 170 -34.5t139.5 -93t93 -139.5
t34.5 -170q0 -158 -101 -279q-87 36 -210 73q-4 1 -5 4.5t-1 19.5q0 21 15 54q16 34 21 72q21 24 31 75q8 41 -1 64l-0.5 1.5t-0.5 2.5q-2 7 0 35.5t7 53.5q4 22 -4 55.5t-30 62.5q-46 58 -135 64h-40q-87 -6 -133 -64q-22 -29 -30 -62.5t-4 -55.5q4 -25 6 -53.5t1 -35.5
q0 -1 -2 -4q-9 -23 -1 -64q11 -51 32 -75q5 -38 21 -72q9 -19 9 -55q0 -16 -1 -19.5t-5 -4.5q-122 -36 -210 -75q-43 51 -73 133.5t-30 148.5v0q0 89 34.5 170t93 139.5t139.5 93t170 34.5v0zM512 861q-97 0 -185.5 -38t-152 -101.5t-101.5 -152t-38 -185.5t38 -185.5
t101.5 -152t152 -101.5t185.5 -38t185.5 38t152 101.5t101.5 152t38 185.5t-38 185.5t-101.5 152t-152 101.5t-185.5 38z" />
    <glyph glyph-name="xsd-finance" unicode="&#xe6b2;" 
d="M1024 384q0 104 -40.5 199t-109 163.5t-163.5 109t-199 40.5t-199 -40.5t-163.5 -109t-109 -163.5t-40.5 -199t40.5 -199t109 -163.5t163.5 -109t199 -40.5h1q71 0 162 30.5t147 74.5q9 6 9 17q0 9 -6.5 16t-15.5 7q-8 0 -14 -5q-51 -39 -134 -67t-148 -28h-1
q-95 0 -181.5 37t-149 99.5t-99.5 149t-37 181.5t37 181.5t99.5 149t149 99.5t181.5 37t181.5 -37t149 -99.5t99.5 -149t37 -181.5q0 -132 -68 -243q-3 -6 -3 -12q0 -9 6.5 -15.5t15.5 -6.5q13 0 19 11q31 50 53 128t22 137v1zM552 52q0 -2 -0.5 -4.5t-6.5 -7.5t-15.5 -5
t-16.5 4.5t-8 8.5l-2 4v77q-133 14 -170 125q-1 1 -1.5 2.5t-1 6.5t0.5 9.5t5 9t11 7.5q13 3 21.5 0t13.5 -8l4 -6q31 -84 117 -91v185q-93 22 -120.5 58t-27.5 79q0 116 148 141v66q5 17 23 17q8 0 14.5 -4.5t8.5 -8.5l3 -4v-66q117 -11 154 -105q0 -21 -19 -26
q-10 -2 -18 -0.5t-12 5.5l-5 3q-22 65 -100 70v-170q164 -30 164 -149q0 -51 -37.5 -94.5t-126.5 -51.5v-77v0zM503 594q-41 -3 -65.5 -25t-24.5 -55q0 -66 90 -83v163v0zM552 184q48 2 75.5 26.5t27.5 59.5q0 73 -103 88v-174z" />
    <glyph glyph-name="xsd-nothave" unicode="&#xe6b3;" 
d="M512 501l448 395l64 -30l-419 -446l419 -370l-90 -178l-422 449l-422 -449l-90 178l419 370l-419 446l64 30z" />
    <glyph glyph-name="xsd-return" unicode="&#xe6b4;" horiz-adv-x="1181" 
d="M1130 393h-1028h1028zM1130 342h-1028q-21 0 -36 15t-15 36t15 36t36 15h1028q21 0 36 -15t15 -36t-15 -36t-36 -15zM471 -60v0q-21 0 -36 15l-434 435l406 487q16 18 39 18q21 0 36 -15t15 -36q0 -18 -12 -32l-346 -416l368 -369q15 -15 15 -36t-14.5 -36t-36.5 -15v0z
" />
    <glyph glyph-name="xsd-member" unicode="&#xe6b5;" horiz-adv-x="1228" 
d="M1224 574l-194 309q-5 8 -16 11q-4 1 -6 2h-0.5h-1.5h-782h-0.5h-1.5q-5 -1 -9 -3q-1 0 -1.5 -0.5t-1.5 -0.5v0h-1q-4 -3 -8 -8q0 -1 -0.5 -1h-0.5l-196 -309v-0.5v-0.5q-4 -7 -4 -13v-0.5v-1.5l1 -1v-1q1 -8 5 -13q1 0 1 -0.5v-0.5l590 -660q8 -9 21 -9q10 -3 21 9
l329 374q7 7 7 18q0 12 -10 20q-7 7 -18 7q-13 0 -21 -9l-248 -282l158 522h303l-111 -127q-7 -7 -7 -18q0 -12 9 -20t20.5 -7t19.5 9l152 173q13 15 2 32zM224 816l140 -229h-286l146 229v0zM417 608l-143 233h280l-137 -233v0zM615 835l145 -248h-291zM393 532l156 -513
l-459 513h303zM451 532h327l-163 -538l-164 538v0zM676 841h280l-144 -233l-136 233v0zM1006 817l144 -230h-285z" />
    <glyph glyph-name="xsd-hardware" unicode="&#xe6b6;" 
d="M902 384q8 10 14 19q49 69 60.5 130t-15.5 107t-86.5 67t-143.5 14q-12 -1 -24 -3q-5 12 -9 22q-36 75 -84 115.5t-102 40.5t-102 -40.5t-84 -115.5q-4 -10 -9 -22q-12 2 -24 3q-84 7 -143.5 -14t-86.5 -67t-15.5 -107t60.5 -130q5 -8 14 -19q-8 -10 -14 -19
q-49 -69 -60.5 -130t15.5 -107q48 -82 190 -82q19 0 40 1q12 1 24 3q5 -12 9 -22q36 -75 84 -115.5t102 -40.5t102 40.5t84 115.5q4 10 9 22q12 -2 24 -3q21 -1 40 -1q142 0 190 82q27 46 15.5 107t-60.5 130q-5 8 -14 19zM735 675q69 6 117.5 -9.5t68 -48.5t8.5 -82.5
t-51 -105.5q-2 -4 -6 -9q-49 55 -114 105q-11 80 -34 149q6 1 11 1zM617 205q-51 -30 -105 -53q-54 23 -105 52.5t-98 63.5q-7 57 -7 115v1q0 59 7 116q47 34 98 63.5t105 52.5q53 -23 105 -53q51 -29 98 -63q7 -57 7 -116t-7 -116q-47 -34 -98 -63v0zM705 205
q-10 -53 -28 -104q-53 10 -105 28q69 34 133 76v0zM452 129q-54 -19 -105 -28q-18 51 -28 104q64 -42 133 -76zM259 308q-42 35 -78 76q36 41 78 76q-3 -38 -3 -76t3 -76v0zM319 563q10 56 28 104q51 -9 105 -28q-69 -34 -133 -76zM572 639q54 19 105 28q18 -51 28 -104
q-64 42 -133 76zM765 460q42 -35 78 -76q-36 -41 -78 -76q3 38 3 76t-3 76zM368 720q30 62 67.5 96t76.5 34t76.5 -34t67.5 -96q2 -6 4 -10q-72 -14 -148 -45q-76 31 -148 45q2 6 4 10v0zM146 429q-40 56 -51 105.5t8 82.5q35 60 150 60q24 0 47 -3q-23 -69 -34 -149
q-65 -50 -114 -105q-3 5 -6 9zM289 93q-69 -6 -117.5 9t-68 48.5t-8.5 83t51 105.5q2 4 6 9q49 -55 114 -105q11 -80 34 -149q-6 -1 -11 -1zM656 48q-30 -62 -67.5 -96t-76.5 -34t-76.5 34t-67.5 96l-4 10q72 14 148 45q76 -31 148 -45l-4 -10v0zM920.5 150.5
q-19.5 -33.5 -68 -48.5t-117.5 -9q-5 0 -11 1q23 69 34 149q65 50 114 105q3 -4 6 -9q40 -56 51 -105.5t-8.5 -83z" />
    <glyph glyph-name="xsd-WeChat" unicode="&#xe6b7;" horiz-adv-x="1092" 
d="M959 42l70 -170l-171 123q-50 -15 -101 -15q-91 0 -168.5 41t-122.5 111t-45 153t45 153t122.5 111t168.5 41t168 -41t122 -111t45 -153q0 -72 -35 -136t-98 -107v0zM757 546q-122 0 -208 -76.5t-86 -184.5t86 -184.5t208 -76.5q50 0 99 16l9 3l68 -48l-27 65l16 10
q60 36 94 93.5t34 121.5q0 108 -86 184.5t-207 76.5v0zM865.5 328q-17.5 0 -30 13t-12.5 31t12.5 31t30 13t30 -13t12.5 -31t-12.5 -31t-30 -13zM650 328q-18 0 -30 13t-12 31t12 31t30 13t30.5 -13t12.5 -31t-12.5 -31t-30.5 -13zM563 645q0 -21 -14.5 -36t-35 -15t-35 15
t-14.5 36t14.5 36t35 15t35 -15t14.5 -36zM212 645q0 21 14.5 36t35 15t35 -15t14.5 -36t-14.5 -36t-35 -15t-35 15t-14.5 36zM389 852q-94 0 -174 -41.5t-126 -112.5t-46 -155q0 -76 40 -144t111 -111l16 -10l-35 -85l87 63l10 -3q32 -11 67 -15q3 -22 9 -46q-40 4 -78 15
l-191 -137l77 190q-74 50 -115 124.5t-41 158.5q0 96 52 177t141.5 128.5t195.5 47.5q120 0 217.5 -60.5t141.5 -157.5q-22 -1 -46 -4q-42 80 -126.5 129t-186.5 49v0z" />
    <glyph glyph-name="xsd-tupian" unicode="&#xe6b8;" 
d="M1024 78q0 -15 -9.5 -28.5t-24.5 -19.5v-58q15 -5 24.5 -18.5t9.5 -30.5q0 -21 -15 -36t-36 -15q-16 0 -29.5 9.5t-19.5 24.5h-58q-5 -15 -18.5 -24.5t-30.5 -9.5q-16 0 -29 9.5t-20 24.5h-58q-5 -15 -18 -24.5t-31 -9.5q-15 0 -28.5 9.5t-20.5 24.5h-57
q-2 -13 -14.5 -22.5t-28.5 -9.5t-29 9.5t-20 24.5h-58q-5 -15 -18.5 -24.5t-30.5 -9.5q-15 0 -28.5 9.5t-20.5 24.5h-57q-5 -15 -18.5 -24.5t-30.5 -9.5q-16 0 -29.5 9.5t-20.5 24.5h-51q-6 -15 -19.5 -24.5t-29.5 -9.5q-21 0 -36 15t-15 36q0 16 9.5 29.5t24.5 19.5v58
q-14 5 -24 18t-10 28.5t9.5 29t24.5 19.5v58q-14 5 -24 18t-10 28.5t9.5 29t24.5 20.5v57q-14 5 -24 18t-10 29t9.5 29t24.5 20v58q-14 4 -24 17.5t-10 29t9.5 29t24.5 19.5v58q-14 5 -24 18t-10 28.5t9.5 29t24.5 20.5v55q-15 7 -24.5 20t-9.5 29q0 21 15 36t36 15
q16 0 29.5 -9.5t19.5 -24.5h58q5 15 18 24.5t28.5 9.5t29 -9.5t20.5 -24.5h57q5 15 18.5 24.5t29 9.5t29 -9.5t19.5 -24.5h58q5 15 18 24.5t29 9.5t29 -9.5t20 -24.5h58q5 15 18 24.5t28.5 9.5t29 -9.5t20.5 -24.5h57q5 15 18 24.5t29 9.5t29.5 -9.5t19.5 -24.5h58
q5 15 18 24.5t29 9.5q21 0 36 -15t15 -36q0 -16 -9.5 -29t-24.5 -20v-58q14 -4 24 -17.5t10 -29t-9.5 -29t-24.5 -19.5v-58q15 -5 24.5 -18.5t9.5 -30.5q0 -15 -9.5 -28.5t-24.5 -20.5v-57q14 -3 24 -16t10 -29t-9.5 -29t-24.5 -20v-57q15 -5 24.5 -18.5t9.5 -30.5
q0 -16 -9.5 -29.5t-24.5 -19.5v-58q14 -3 24 -16t10 -29zM887 760h-750v-750h750v750v0zM444 215l239 289l153 -238v-205h-648l205 205zM341.5 453q-43.5 0 -73 29.5t-29.5 72.5t29.5 73t73 30t73 -30t29.5 -73t-29.5 -72.5t-73 -29.5z" />
    <glyph glyph-name="jiazai" unicode="&#xe6b9;" 
d="M512 663q-13 0 -22.5 9t-9.5 23v169q0 13 9.5 22.5t22.5 9.5t22.5 -9.5t9.5 -22.5v-169q0 -14 -9.5 -23t-22.5 -9zM512 -128q-13 0 -22.5 9.5t-9.5 22.5v169q0 14 9.5 23t22.5 9t22.5 -9t9.5 -23v-169q0 -13 -9.5 -22.5t-22.5 -9.5zM201 352h-169q-13 0 -22.5 9.5
t-9.5 22.5t9.5 22.5t22.5 9.5h169q14 0 23 -9.5t9 -22.5t-9 -22.5t-23 -9.5zM992 352h-169q-14 0 -23 9.5t-9 22.5t9 22.5t23 9.5h169q13 0 22.5 -9.5t9.5 -22.5t-9.5 -22.5t-22.5 -9.5zM293 571v0q-14 0 -23 9l-120 120q-9 10 -9 23t9.5 22.5t22.5 9.5t22 -9l120 -120
q10 -10 10 -23t-9.5 -22.5t-22.5 -9.5zM852 13v0q-13 0 -23 9l-120 120q-9 9 -9 22t9.5 22.5t22.5 9.5t23 -9l119 -120q10 -9 10 -22t-9.5 -22.5t-22.5 -9.5zM732 571q-13 0 -22.5 9.5t-9.5 22.5t9 23l120 120q9 9 22 9q14 0 23 -9.5t9 -22.5t-9 -23l-119 -120
q-10 -9 -23 -9v0zM173 13q-14 0 -23 9.5t-9 22.5t9 22l120 120q9 9 22 9t22.5 -9.5t9.5 -22.5t-9 -22l-120 -120q-9 -9 -22 -9v0z" />
    <glyph glyph-name="CombinedShape" unicode="&#xe6ba;" 
d="M392 836v0q0 25 17.5 42.5t42.5 17.5v0h120q25 0 42.5 -18t17.5 -42v-904v0q0 -25 -17.5 -42.5t-42.5 -17.5v0h-120v0q-25 0 -42.5 17.5t-17.5 42.5v904zM452 806v-844q0 -12 9 -21t21 -9h60q13 0 21.5 9t8.5 21v844q0 12 -9 21t-21 9h-60v0q-13 0 -21.5 -9t-8.5 -21v0z
M753 354q0 25 17.5 42.5t43.5 17.5h119q25 0 43 -17.5t18 -42.5v-422q0 -25 -17.5 -42.5t-43.5 -17.5h-119q-25 0 -43 17.5t-18 42.5v422zM813 324v-361q0 -13 9 -22t22 -9h59q13 0 22 9t9 22v361q-1 12 -9.5 21t-21.5 9h-59h-1q-12 0 -21 -9t-9 -21v0zM30 595v0
q0 25 17.5 42.5t42.5 17.5h1h119q25 0 43 -17.5t18 -42.5v-663v0q0 -25 -17.5 -42.5t-42.5 -17.5h-1h-119q-25 0 -43 17.5t-18 42.5v663zM90 565v-603q0 -12 9 -21t22 -9h59q13 0 22 9t9 21v603q0 12 -9 21t-22 9h-59h-1q-12 0 -21 -9t-9 -21v0v0z" />
    <glyph glyph-name="xuanzhong1" unicode="&#xe6bc;" 
d="M943.5 672.5q-16.5 16.5 -39.5 16.5t-40 -17l-464 -459l-240 238q-17 16 -40 16t-39.5 -16t-16.5 -39t16 -40l281 -277q16 -16 39 -16t40 16l504 499q16 16 16 39t-16.5 39.5zM944 672z" />
    <glyph glyph-name="xsd-attestation" unicode="&#xe6bd;" 
d="M512 896q-96 -72 -198.5 -109t-249.5 -37v-379q0 -53 26 -120.5t71.5 -133t101.5 -121t122 -90t127 -34.5t127.5 34.5t122 90t101 121t71.5 133t26 120.5v379q-147 0 -249.5 37t-198.5 109zM896 373q0 -57 -35 -132t-88.5 -140t-124.5 -110.5t-136 -45.5t-136 45.5
t-124.5 110.5t-88.5 140t-35 132v325q126 0 214 31.5t170 93.5q82 -62 170 -93.5t214 -31.5v-325zM513 748q-68 -51 -141 -77.5t-178 -26.5v-270q0 -47 29 -109.5t73.5 -117t103.5 -92t113 -37.5t113 37.5t103.5 92t74 117t29.5 109.5v270q-105 0 -178.5 26.5t-141.5 77.5z
M701 480h-6q-22 0 -35 -5q-12 -7 -18 -21l-120 -300h-19l-1 3l-124 297q-8 18 -16 22q-10 4 -31 4h-5v28h153v-28h-5q-27 0 -36 -4q-8 -5 -4 -17l91 -219l85 218q4 9 -3 14q-10 8 -37 8h-6v28h137v-28v0z" />
    <glyph glyph-name="tixing" unicode="&#xe6be;" 
d="M510 -61q-90 0 -173 35.5t-142.5 95.5t-95 142.5t-35.5 173t35.5 173.5t95 142.5t142.5 95t173.5 35.5t173 -35.5t142.5 -95t95.5 -142.5t35.5 -173.5t-35.5 -173t-95.5 -142.5t-142.5 -95.5t-173.5 -35.5v0zM510.5 768q-103.5 0 -191.5 -51.5t-139.5 -139.5
t-51.5 -191.5t51.5 -191.5t139.5 -139.5t191.5 -51.5t191.5 51.5t139.5 139.5t51.5 191.5t-51.5 191.5t-139.5 139.5t-191.5 51.5zM510 768zM511 104q28 0 51 15t35 39h-171q12 -24 34.5 -39t50.5 -15zM741 239v0q-18 5 -29 19.5t-11 33.5v0.5v0.5v0v149h-1q-2 70 -48 122
t-114 64v3q0 14 -9.5 24t-23.5 10t-24 -10t-10 -24v-3q-68 -12 -114 -64t-48 -122v0v-149h-1l0.5 -1t0.5 -2q0 -17 -9.5 -31t-24.5 -21q-9 -2 -15 -9.5t-6 -16.5q0 -11 8 -19t19 -8h460q11 0 19 8t8 19t-8 19t-19 8zM348 239q15 25 15 54v1v1v133v0v3.5v3.5q0 59 41.5 100.5
t100 41.5t100.5 -41.5t42 -100.5q0 -1 -0.5 -3.5t-0.5 -3.5h1v-135q0 -29 14 -54h-313v0zM348 239z" />
    <glyph glyph-name="yue" unicode="&#xe6bf;" 
d="M511 870l-420 -243v-485l420 -243l420 243v485zM868 178l-357 -205l-356 205v412l356 206l357 -206v-412zM361 554l74 -74h-115v-64h160v-96h-160v-64h160v-114h64v114h159v64h-159v96h159v64h-114l73 74l-45 45l-105 -106l-106 106z" />
    <glyph glyph-name="CombinedShape1" unicode="&#xe6c0;" 
d="M0 783q0 47 33 80t80 33h798q47 0 80 -33t33 -80v-798q0 -46 -33.5 -79.5t-79.5 -33.5h-798q-46 0 -79.5 33.5t-33.5 79.5v798zM387 771q-19 -38 -52.5 -87.5t-61.5 -82.5t-75 -71.5t-84 -60.5l33 -54q109 73 173 147q61 69 121 176zM416 386q-28 -122 -81 -196
q-61 -77 -181 -142l40 -52q133 74 198 166q55 82 87 224h214q-6 -202 -29 -263q-22 -59 -91.5 -59t-142.5 3l17 -62h158q64 4 93 42t42 138q12 95 16 261h-515v-60h175v0zM630 782l-53 -30q79 -204 279 -334l42 49q-192 115 -268 315v0z" />
    <glyph glyph-name="CombinedShape2" unicode="&#xe6c1;" 
d="M892 896h-760q-55 0 -93.5 -38.5t-38.5 -93.5v-760q0 -55 38.5 -93.5t93.5 -38.5h760v0q55 0 93.5 38.5t38.5 93.5v760v0q0 55 -38.5 93.5t-93.5 38.5zM89 48q93 111 93 341v315h313q-18 28 -39 58l55 32q33 -43 60 -90h269v-221h-63v25h-531v-126q0 -256 -113 -389
q-22 28 -44 55v0zM891 366h-412q-2 -41 -7 -81h336q-4 -81 -12 -161q-11 -112 -122 -112q-57 0 -127 1q-5 35 -13 70q77 -8 133 -8q60 0 67 57q5 41 8 98h-279q-25 -149 -182 -243q-15 21 -41 55q104 65 139 138q32 62 37 185h-145v55h279q-16 24 -36 55l54 30
q31 -44 55 -84h269v-55v0h-1zM246 649h530v-86h-530v86v0z" />
  </font>
</defs>
</svg>
